<?xml version="1.0" encoding="utf-8"?>
<svg xmlns="http://www.w3.org/2000/svg" xmlns:xlink="http://www.w3.org/1999/xlink" width="600" height="400" viewBox="0 0 2400 1600">
<defs>
  <clipPath id="clip030">
    <rect x="0" y="0" width="2400" height="1600"/>
  </clipPath>
</defs>
<path clip-path="url(#clip030)" d="M0 1600 L2400 1600 L2400 0 L0 0  Z" fill="#ffffff" fill-rule="evenodd" fill-opacity="1"/>
<defs>
  <clipPath id="clip031">
    <rect x="480" y="0" width="1681" height="1600"/>
  </clipPath>
</defs>
<path clip-path="url(#clip030)" d="M186.274 1486.45 L2352.76 1486.45 L2352.76 47.2441 L186.274 47.2441  Z" fill="#ffffff" fill-rule="evenodd" fill-opacity="1"/>
<defs>
  <clipPath id="clip032">
    <rect x="186" y="47" width="2167" height="1440"/>
  </clipPath>
</defs>
<polyline clip-path="url(#clip032)" style="stroke:#000000; stroke-linecap:round; stroke-linejoin:round; stroke-width:2; stroke-opacity:0.1; fill:none" points="247.59,1486.45 247.59,47.2441 "/>
<polyline clip-path="url(#clip032)" style="stroke:#000000; stroke-linecap:round; stroke-linejoin:round; stroke-width:2; stroke-opacity:0.1; fill:none" points="758.552,1486.45 758.552,47.2441 "/>
<polyline clip-path="url(#clip032)" style="stroke:#000000; stroke-linecap:round; stroke-linejoin:round; stroke-width:2; stroke-opacity:0.1; fill:none" points="1269.51,1486.45 1269.51,47.2441 "/>
<polyline clip-path="url(#clip032)" style="stroke:#000000; stroke-linecap:round; stroke-linejoin:round; stroke-width:2; stroke-opacity:0.1; fill:none" points="1780.48,1486.45 1780.48,47.2441 "/>
<polyline clip-path="url(#clip032)" style="stroke:#000000; stroke-linecap:round; stroke-linejoin:round; stroke-width:2; stroke-opacity:0.1; fill:none" points="2291.44,1486.45 2291.44,47.2441 "/>
<polyline clip-path="url(#clip032)" style="stroke:#000000; stroke-linecap:round; stroke-linejoin:round; stroke-width:2; stroke-opacity:0.1; fill:none" points="186.274,1445.72 2352.76,1445.72 "/>
<polyline clip-path="url(#clip032)" style="stroke:#000000; stroke-linecap:round; stroke-linejoin:round; stroke-width:2; stroke-opacity:0.1; fill:none" points="186.274,1105.2 2352.76,1105.2 "/>
<polyline clip-path="url(#clip032)" style="stroke:#000000; stroke-linecap:round; stroke-linejoin:round; stroke-width:2; stroke-opacity:0.1; fill:none" points="186.274,764.692 2352.76,764.692 "/>
<polyline clip-path="url(#clip032)" style="stroke:#000000; stroke-linecap:round; stroke-linejoin:round; stroke-width:2; stroke-opacity:0.1; fill:none" points="186.274,424.181 2352.76,424.181 "/>
<polyline clip-path="url(#clip032)" style="stroke:#000000; stroke-linecap:round; stroke-linejoin:round; stroke-width:2; stroke-opacity:0.1; fill:none" points="186.274,83.6691 2352.76,83.6691 "/>
<polyline clip-path="url(#clip030)" style="stroke:#000000; stroke-linecap:round; stroke-linejoin:round; stroke-width:4; stroke-opacity:1; fill:none" points="186.274,1486.45 2352.76,1486.45 "/>
<polyline clip-path="url(#clip030)" style="stroke:#000000; stroke-linecap:round; stroke-linejoin:round; stroke-width:4; stroke-opacity:1; fill:none" points="247.59,1486.45 247.59,1467.55 "/>
<polyline clip-path="url(#clip030)" style="stroke:#000000; stroke-linecap:round; stroke-linejoin:round; stroke-width:4; stroke-opacity:1; fill:none" points="758.552,1486.45 758.552,1467.55 "/>
<polyline clip-path="url(#clip030)" style="stroke:#000000; stroke-linecap:round; stroke-linejoin:round; stroke-width:4; stroke-opacity:1; fill:none" points="1269.51,1486.45 1269.51,1467.55 "/>
<polyline clip-path="url(#clip030)" style="stroke:#000000; stroke-linecap:round; stroke-linejoin:round; stroke-width:4; stroke-opacity:1; fill:none" points="1780.48,1486.45 1780.48,1467.55 "/>
<polyline clip-path="url(#clip030)" style="stroke:#000000; stroke-linecap:round; stroke-linejoin:round; stroke-width:4; stroke-opacity:1; fill:none" points="2291.44,1486.45 2291.44,1467.55 "/>
<path clip-path="url(#clip030)" d="M216.49 1532.02 L246.166 1532.02 L246.166 1535.95 L216.49 1535.95 L216.49 1532.02 Z" fill="#000000" fill-rule="nonzero" fill-opacity="1" /><path clip-path="url(#clip030)" d="M269.106 1518.36 L257.3 1536.81 L269.106 1536.81 L269.106 1518.36 M267.879 1514.29 L273.758 1514.29 L273.758 1536.81 L278.689 1536.81 L278.689 1540.7 L273.758 1540.7 L273.758 1548.85 L269.106 1548.85 L269.106 1540.7 L253.504 1540.7 L253.504 1536.19 L267.879 1514.29 Z" fill="#000000" fill-rule="nonzero" fill-opacity="1" /><path clip-path="url(#clip030)" d="M728.02 1532.02 L757.696 1532.02 L757.696 1535.95 L728.02 1535.95 L728.02 1532.02 Z" fill="#000000" fill-rule="nonzero" fill-opacity="1" /><path clip-path="url(#clip030)" d="M781.955 1530.21 Q785.311 1530.93 787.186 1533.2 Q789.084 1535.47 789.084 1538.8 Q789.084 1543.92 785.566 1546.72 Q782.047 1549.52 775.566 1549.52 Q773.39 1549.52 771.075 1549.08 Q768.784 1548.66 766.33 1547.81 L766.33 1543.29 Q768.274 1544.43 770.589 1545.01 Q772.904 1545.58 775.427 1545.58 Q779.825 1545.58 782.117 1543.85 Q784.432 1542.11 784.432 1538.8 Q784.432 1535.75 782.279 1534.03 Q780.149 1532.3 776.33 1532.3 L772.302 1532.3 L772.302 1528.45 L776.515 1528.45 Q779.964 1528.45 781.793 1527.09 Q783.622 1525.7 783.622 1523.11 Q783.622 1520.45 781.723 1519.03 Q779.848 1517.6 776.33 1517.6 Q774.409 1517.6 772.21 1518.01 Q770.011 1518.43 767.372 1519.31 L767.372 1515.14 Q770.034 1514.4 772.348 1514.03 Q774.686 1513.66 776.747 1513.66 Q782.071 1513.66 785.172 1516.09 Q788.274 1518.5 788.274 1522.62 Q788.274 1525.49 786.631 1527.48 Q784.987 1529.45 781.955 1530.21 Z" fill="#000000" fill-rule="nonzero" fill-opacity="1" /><path clip-path="url(#clip030)" d="M1239.46 1532.02 L1269.13 1532.02 L1269.13 1535.95 L1239.46 1535.95 L1239.46 1532.02 Z" fill="#000000" fill-rule="nonzero" fill-opacity="1" /><path clip-path="url(#clip030)" d="M1283.25 1544.91 L1299.57 1544.91 L1299.57 1548.85 L1277.63 1548.85 L1277.63 1544.91 Q1280.29 1542.16 1284.87 1537.53 Q1289.48 1532.88 1290.66 1531.53 Q1292.91 1529.01 1293.79 1527.27 Q1294.69 1525.51 1294.69 1523.82 Q1294.69 1521.07 1292.74 1519.33 Q1290.82 1517.6 1287.72 1517.6 Q1285.52 1517.6 1283.07 1518.36 Q1280.64 1519.13 1277.86 1520.68 L1277.86 1515.95 Q1280.68 1514.82 1283.14 1514.24 Q1285.59 1513.66 1287.63 1513.66 Q1293 1513.66 1296.19 1516.35 Q1299.39 1519.03 1299.39 1523.52 Q1299.39 1525.65 1298.58 1527.57 Q1297.79 1529.47 1295.68 1532.07 Q1295.11 1532.74 1292 1535.95 Q1288.9 1539.15 1283.25 1544.91 Z" fill="#000000" fill-rule="nonzero" fill-opacity="1" /><path clip-path="url(#clip030)" d="M1750.23 1532.02 L1779.91 1532.02 L1779.91 1535.95 L1750.23 1535.95 L1750.23 1532.02 Z" fill="#000000" fill-rule="nonzero" fill-opacity="1" /><path clip-path="url(#clip030)" d="M1790.81 1544.91 L1798.45 1544.91 L1798.45 1518.55 L1790.14 1520.21 L1790.14 1515.95 L1798.41 1514.29 L1803.08 1514.29 L1803.08 1544.91 L1810.72 1544.91 L1810.72 1548.85 L1790.81 1548.85 L1790.81 1544.91 Z" fill="#000000" fill-rule="nonzero" fill-opacity="1" /><path clip-path="url(#clip030)" d="M2291.44 1517.37 Q2287.83 1517.37 2286 1520.93 Q2284.2 1524.47 2284.2 1531.6 Q2284.2 1538.71 2286 1542.27 Q2287.83 1545.82 2291.44 1545.82 Q2295.07 1545.82 2296.88 1542.27 Q2298.71 1538.71 2298.71 1531.6 Q2298.71 1524.47 2296.88 1520.93 Q2295.07 1517.37 2291.44 1517.37 M2291.44 1513.66 Q2297.25 1513.66 2300.31 1518.27 Q2303.38 1522.85 2303.38 1531.6 Q2303.38 1540.33 2300.31 1544.94 Q2297.25 1549.52 2291.44 1549.52 Q2285.63 1549.52 2282.55 1544.94 Q2279.5 1540.33 2279.5 1531.6 Q2279.5 1522.85 2282.55 1518.27 Q2285.63 1513.66 2291.44 1513.66 Z" fill="#000000" fill-rule="nonzero" fill-opacity="1" /><polyline clip-path="url(#clip030)" style="stroke:#000000; stroke-linecap:round; stroke-linejoin:round; stroke-width:4; stroke-opacity:1; fill:none" points="186.274,1486.45 186.274,47.2441 "/>
<polyline clip-path="url(#clip030)" style="stroke:#000000; stroke-linecap:round; stroke-linejoin:round; stroke-width:4; stroke-opacity:1; fill:none" points="186.274,1445.72 205.172,1445.72 "/>
<polyline clip-path="url(#clip030)" style="stroke:#000000; stroke-linecap:round; stroke-linejoin:round; stroke-width:4; stroke-opacity:1; fill:none" points="186.274,1105.2 205.172,1105.2 "/>
<polyline clip-path="url(#clip030)" style="stroke:#000000; stroke-linecap:round; stroke-linejoin:round; stroke-width:4; stroke-opacity:1; fill:none" points="186.274,764.692 205.172,764.692 "/>
<polyline clip-path="url(#clip030)" style="stroke:#000000; stroke-linecap:round; stroke-linejoin:round; stroke-width:4; stroke-opacity:1; fill:none" points="186.274,424.181 205.172,424.181 "/>
<polyline clip-path="url(#clip030)" style="stroke:#000000; stroke-linecap:round; stroke-linejoin:round; stroke-width:4; stroke-opacity:1; fill:none" points="186.274,83.6691 205.172,83.6691 "/>
<path clip-path="url(#clip030)" d="M62.9365 1431.51 Q59.3254 1431.51 57.4967 1435.08 Q55.6912 1438.62 55.6912 1445.75 Q55.6912 1452.86 57.4967 1456.42 Q59.3254 1459.96 62.9365 1459.96 Q66.5707 1459.96 68.3763 1456.42 Q70.205 1452.86 70.205 1445.75 Q70.205 1438.62 68.3763 1435.08 Q66.5707 1431.51 62.9365 1431.51 M62.9365 1427.81 Q68.7467 1427.81 71.8022 1432.42 Q74.8809 1437 74.8809 1445.75 Q74.8809 1454.48 71.8022 1459.08 Q68.7467 1463.67 62.9365 1463.67 Q57.1264 1463.67 54.0477 1459.08 Q50.9921 1454.48 50.9921 1445.75 Q50.9921 1437 54.0477 1432.42 Q57.1264 1427.81 62.9365 1427.81 Z" fill="#000000" fill-rule="nonzero" fill-opacity="1" /><path clip-path="url(#clip030)" d="M83.0984 1457.12 L87.9827 1457.12 L87.9827 1463 L83.0984 1463 L83.0984 1457.12 Z" fill="#000000" fill-rule="nonzero" fill-opacity="1" /><path clip-path="url(#clip030)" d="M108.168 1431.51 Q104.557 1431.51 102.728 1435.08 Q100.922 1438.62 100.922 1445.75 Q100.922 1452.86 102.728 1456.42 Q104.557 1459.96 108.168 1459.96 Q111.802 1459.96 113.608 1456.42 Q115.436 1452.86 115.436 1445.75 Q115.436 1438.62 113.608 1435.08 Q111.802 1431.51 108.168 1431.51 M108.168 1427.81 Q113.978 1427.81 117.033 1432.42 Q120.112 1437 120.112 1445.75 Q120.112 1454.48 117.033 1459.08 Q113.978 1463.67 108.168 1463.67 Q102.358 1463.67 99.2789 1459.08 Q96.2234 1454.48 96.2234 1445.75 Q96.2234 1437 99.2789 1432.42 Q102.358 1427.81 108.168 1427.81 Z" fill="#000000" fill-rule="nonzero" fill-opacity="1" /><path clip-path="url(#clip030)" d="M138.33 1431.51 Q134.719 1431.51 132.89 1435.08 Q131.084 1438.62 131.084 1445.75 Q131.084 1452.86 132.89 1456.42 Q134.719 1459.96 138.33 1459.96 Q141.964 1459.96 143.769 1456.42 Q145.598 1452.86 145.598 1445.75 Q145.598 1438.62 143.769 1435.08 Q141.964 1431.51 138.33 1431.51 M138.33 1427.81 Q144.14 1427.81 147.195 1432.42 Q150.274 1437 150.274 1445.75 Q150.274 1454.48 147.195 1459.08 Q144.14 1463.67 138.33 1463.67 Q132.519 1463.67 129.441 1459.08 Q126.385 1454.48 126.385 1445.75 Q126.385 1437 129.441 1432.42 Q132.519 1427.81 138.33 1427.81 Z" fill="#000000" fill-rule="nonzero" fill-opacity="1" /><path clip-path="url(#clip030)" d="M63.9319 1091 Q60.3208 1091 58.4921 1094.57 Q56.6865 1098.11 56.6865 1105.24 Q56.6865 1112.35 58.4921 1115.91 Q60.3208 1119.45 63.9319 1119.45 Q67.5661 1119.45 69.3717 1115.91 Q71.2004 1112.35 71.2004 1105.24 Q71.2004 1098.11 69.3717 1094.57 Q67.5661 1091 63.9319 1091 M63.9319 1087.3 Q69.742 1087.3 72.7976 1091.91 Q75.8763 1096.49 75.8763 1105.24 Q75.8763 1113.97 72.7976 1118.57 Q69.742 1123.16 63.9319 1123.16 Q58.1217 1123.16 55.043 1118.57 Q51.9875 1113.97 51.9875 1105.24 Q51.9875 1096.49 55.043 1091.91 Q58.1217 1087.3 63.9319 1087.3 Z" fill="#000000" fill-rule="nonzero" fill-opacity="1" /><path clip-path="url(#clip030)" d="M84.0938 1116.6 L88.978 1116.6 L88.978 1122.48 L84.0938 1122.48 L84.0938 1116.6 Z" fill="#000000" fill-rule="nonzero" fill-opacity="1" /><path clip-path="url(#clip030)" d="M103.191 1118.55 L119.51 1118.55 L119.51 1122.48 L97.566 1122.48 L97.566 1118.55 Q100.228 1115.79 104.811 1111.16 Q109.418 1106.51 110.598 1105.17 Q112.844 1102.65 113.723 1100.91 Q114.626 1099.15 114.626 1097.46 Q114.626 1094.71 112.682 1092.97 Q110.76 1091.23 107.658 1091.23 Q105.459 1091.23 103.006 1092 Q100.575 1092.76 97.7974 1094.31 L97.7974 1089.59 Q100.621 1088.46 103.075 1087.88 Q105.529 1087.3 107.566 1087.3 Q112.936 1087.3 116.131 1089.98 Q119.325 1092.67 119.325 1097.16 Q119.325 1099.29 118.515 1101.21 Q117.728 1103.11 115.621 1105.7 Q115.043 1106.37 111.941 1109.59 Q108.839 1112.79 103.191 1118.55 Z" fill="#000000" fill-rule="nonzero" fill-opacity="1" /><path clip-path="url(#clip030)" d="M129.371 1087.92 L147.728 1087.92 L147.728 1091.86 L133.654 1091.86 L133.654 1100.33 Q134.672 1099.98 135.691 1099.82 Q136.709 1099.64 137.728 1099.64 Q143.515 1099.64 146.894 1102.81 Q150.274 1105.98 150.274 1111.4 Q150.274 1116.97 146.802 1120.08 Q143.33 1123.16 137.01 1123.16 Q134.834 1123.16 132.566 1122.78 Q130.32 1122.41 127.913 1121.67 L127.913 1116.97 Q129.996 1118.11 132.219 1118.66 Q134.441 1119.22 136.918 1119.22 Q140.922 1119.22 143.26 1117.11 Q145.598 1115.01 145.598 1111.4 Q145.598 1107.79 143.26 1105.68 Q140.922 1103.57 136.918 1103.57 Q135.043 1103.57 133.168 1103.99 Q131.316 1104.41 129.371 1105.29 L129.371 1087.92 Z" fill="#000000" fill-rule="nonzero" fill-opacity="1" /><path clip-path="url(#clip030)" d="M62.9365 750.491 Q59.3254 750.491 57.4967 754.056 Q55.6912 757.598 55.6912 764.727 Q55.6912 771.834 57.4967 775.398 Q59.3254 778.94 62.9365 778.94 Q66.5707 778.94 68.3763 775.398 Q70.205 771.834 70.205 764.727 Q70.205 757.598 68.3763 754.056 Q66.5707 750.491 62.9365 750.491 M62.9365 746.787 Q68.7467 746.787 71.8022 751.394 Q74.8809 755.977 74.8809 764.727 Q74.8809 773.454 71.8022 778.06 Q68.7467 782.644 62.9365 782.644 Q57.1264 782.644 54.0477 778.06 Q50.9921 773.454 50.9921 764.727 Q50.9921 755.977 54.0477 751.394 Q57.1264 746.787 62.9365 746.787 Z" fill="#000000" fill-rule="nonzero" fill-opacity="1" /><path clip-path="url(#clip030)" d="M83.0984 776.093 L87.9827 776.093 L87.9827 781.972 L83.0984 781.972 L83.0984 776.093 Z" fill="#000000" fill-rule="nonzero" fill-opacity="1" /><path clip-path="url(#clip030)" d="M98.2141 747.412 L116.57 747.412 L116.57 751.348 L102.496 751.348 L102.496 759.82 Q103.515 759.473 104.534 759.31 Q105.552 759.125 106.571 759.125 Q112.358 759.125 115.737 762.297 Q119.117 765.468 119.117 770.884 Q119.117 776.463 115.645 779.565 Q112.172 782.644 105.853 782.644 Q103.677 782.644 101.409 782.273 Q99.1632 781.903 96.7558 781.162 L96.7558 776.463 Q98.8391 777.597 101.061 778.153 Q103.284 778.709 105.76 778.709 Q109.765 778.709 112.103 776.602 Q114.441 774.496 114.441 770.884 Q114.441 767.273 112.103 765.167 Q109.765 763.06 105.76 763.06 Q103.885 763.06 102.01 763.477 Q100.159 763.894 98.2141 764.773 L98.2141 747.412 Z" fill="#000000" fill-rule="nonzero" fill-opacity="1" /><path clip-path="url(#clip030)" d="M138.33 750.491 Q134.719 750.491 132.89 754.056 Q131.084 757.598 131.084 764.727 Q131.084 771.834 132.89 775.398 Q134.719 778.94 138.33 778.94 Q141.964 778.94 143.769 775.398 Q145.598 771.834 145.598 764.727 Q145.598 757.598 143.769 754.056 Q141.964 750.491 138.33 750.491 M138.33 746.787 Q144.14 746.787 147.195 751.394 Q150.274 755.977 150.274 764.727 Q150.274 773.454 147.195 778.06 Q144.14 782.644 138.33 782.644 Q132.519 782.644 129.441 778.06 Q126.385 773.454 126.385 764.727 Q126.385 755.977 129.441 751.394 Q132.519 746.787 138.33 746.787 Z" fill="#000000" fill-rule="nonzero" fill-opacity="1" /><path clip-path="url(#clip030)" d="M63.9319 409.979 Q60.3208 409.979 58.4921 413.544 Q56.6865 417.086 56.6865 424.215 Q56.6865 431.322 58.4921 434.887 Q60.3208 438.428 63.9319 438.428 Q67.5661 438.428 69.3717 434.887 Q71.2004 431.322 71.2004 424.215 Q71.2004 417.086 69.3717 413.544 Q67.5661 409.979 63.9319 409.979 M63.9319 406.276 Q69.742 406.276 72.7976 410.882 Q75.8763 415.466 75.8763 424.215 Q75.8763 432.942 72.7976 437.549 Q69.742 442.132 63.9319 442.132 Q58.1217 442.132 55.043 437.549 Q51.9875 432.942 51.9875 424.215 Q51.9875 415.466 55.043 410.882 Q58.1217 406.276 63.9319 406.276 Z" fill="#000000" fill-rule="nonzero" fill-opacity="1" /><path clip-path="url(#clip030)" d="M84.0938 435.581 L88.978 435.581 L88.978 441.461 L84.0938 441.461 L84.0938 435.581 Z" fill="#000000" fill-rule="nonzero" fill-opacity="1" /><path clip-path="url(#clip030)" d="M97.9826 406.901 L120.205 406.901 L120.205 408.891 L107.658 441.461 L102.774 441.461 L114.58 410.836 L97.9826 410.836 L97.9826 406.901 Z" fill="#000000" fill-rule="nonzero" fill-opacity="1" /><path clip-path="url(#clip030)" d="M129.371 406.901 L147.728 406.901 L147.728 410.836 L133.654 410.836 L133.654 419.308 Q134.672 418.961 135.691 418.799 Q136.709 418.614 137.728 418.614 Q143.515 418.614 146.894 421.785 Q150.274 424.956 150.274 430.373 Q150.274 435.952 146.802 439.053 Q143.33 442.132 137.01 442.132 Q134.834 442.132 132.566 441.762 Q130.32 441.391 127.913 440.651 L127.913 435.952 Q129.996 437.086 132.219 437.641 Q134.441 438.197 136.918 438.197 Q140.922 438.197 143.26 436.09 Q145.598 433.984 145.598 430.373 Q145.598 426.762 143.26 424.655 Q140.922 422.549 136.918 422.549 Q135.043 422.549 133.168 422.965 Q131.316 423.382 129.371 424.262 L129.371 406.901 Z" fill="#000000" fill-rule="nonzero" fill-opacity="1" /><path clip-path="url(#clip030)" d="M53.7467 97.0139 L61.3856 97.0139 L61.3856 70.6483 L53.0754 72.315 L53.0754 68.0558 L61.3393 66.3891 L66.0152 66.3891 L66.0152 97.0139 L73.654 97.0139 L73.654 100.949 L53.7467 100.949 L53.7467 97.0139 Z" fill="#000000" fill-rule="nonzero" fill-opacity="1" /><path clip-path="url(#clip030)" d="M83.0984 95.0695 L87.9827 95.0695 L87.9827 100.949 L83.0984 100.949 L83.0984 95.0695 Z" fill="#000000" fill-rule="nonzero" fill-opacity="1" /><path clip-path="url(#clip030)" d="M108.168 69.4678 Q104.557 69.4678 102.728 73.0326 Q100.922 76.5742 100.922 83.7038 Q100.922 90.8103 102.728 94.3751 Q104.557 97.9167 108.168 97.9167 Q111.802 97.9167 113.608 94.3751 Q115.436 90.8103 115.436 83.7038 Q115.436 76.5742 113.608 73.0326 Q111.802 69.4678 108.168 69.4678 M108.168 65.7641 Q113.978 65.7641 117.033 70.3706 Q120.112 74.9539 120.112 83.7038 Q120.112 92.4306 117.033 97.0371 Q113.978 101.62 108.168 101.62 Q102.358 101.62 99.2789 97.0371 Q96.2234 92.4306 96.2234 83.7038 Q96.2234 74.9539 99.2789 70.3706 Q102.358 65.7641 108.168 65.7641 Z" fill="#000000" fill-rule="nonzero" fill-opacity="1" /><path clip-path="url(#clip030)" d="M138.33 69.4678 Q134.719 69.4678 132.89 73.0326 Q131.084 76.5742 131.084 83.7038 Q131.084 90.8103 132.89 94.3751 Q134.719 97.9167 138.33 97.9167 Q141.964 97.9167 143.769 94.3751 Q145.598 90.8103 145.598 83.7038 Q145.598 76.5742 143.769 73.0326 Q141.964 69.4678 138.33 69.4678 M138.33 65.7641 Q144.14 65.7641 147.195 70.3706 Q150.274 74.9539 150.274 83.7038 Q150.274 92.4306 147.195 97.0371 Q144.14 101.62 138.33 101.62 Q132.519 101.62 129.441 97.0371 Q126.385 92.4306 126.385 83.7038 Q126.385 74.9539 129.441 70.3706 Q132.519 65.7641 138.33 65.7641 Z" fill="#000000" fill-rule="nonzero" fill-opacity="1" /><polyline clip-path="url(#clip032)" style="stroke:#009af9; stroke-linecap:round; stroke-linejoin:round; stroke-width:4; stroke-opacity:1; fill:none" points="247.59,100.898 249.633,102.931 251.677,1445.72 253.721,1445.72 255.765,1445.72 257.809,1445.72 259.853,102.444 261.896,103.407 263.94,104.77 265.984,1445.72 268.028,106.05 270.072,104.77 272.116,1445.72 274.16,113.51 276.203,1445.72 278.247,112.24 280.291,102.444 282.335,101.428 284.379,1445.72 286.423,106.461 288.467,1445.72 290.51,101.943 292.554,106.05 294.598,1445.72 296.642,101.428 298.686,1445.72 300.73,102.931 302.774,1445.72 304.817,114.125 306.861,105.631 308.905,119.187 310.949,1445.72 312.993,1445.72 315.037,1445.72 317.08,1445.72 319.124,1445.72 321.168,1445.72 323.212,1445.72 325.256,1445.72 327.3,1445.72 329.344,1445.72 331.387,1445.72 333.431,1445.72 335.475,1445.72 337.519,1445.72 339.563,1445.72 341.607,1445.72 343.651,1445.72 345.694,1445.72 347.738,1445.72 349.782,1445.72 351.826,1445.72 353.87,1445.72 355.914,1445.72 357.957,1445.72 360.001,1445.72 362.045,1445.72 364.089,1445.72 366.133,1445.72 368.177,1445.72 370.221,1445.72 372.264,1445.72 374.308,1445.72 376.352,1445.72 378.396,1445.72 380.44,1445.72 382.484,1445.72 384.528,1445.72 386.571,1445.72 388.615,114.428 390.659,109.869 392.703,104.77 394.747,102.931 396.791,1445.72 398.834,102.931 400.878,1445.72 402.922,1445.72 404.966,109.151 407.01,102.931 409.054,101.428 411.098,1445.72 413.141,105.205 415.185,106.05 417.229,104.326 419.273,1445.72 421.317,102.931 423.361,1445.72 425.405,100.351 427.448,98.5896 429.492,113.819 431.536,1445.72 433.58,1445.72 435.624,110.22 437.668,1445.72 439.712,101.428 441.755,101.428 443.799,101.943 445.843,103.872 447.887,1445.72 449.931,111.248 451.975,106.461 454.018,103.407 456.062,104.326 458.106,112.882 460.15,1445.72 462.194,104.326 464.238,108.034 466.282,107.65 468.325,105.205 470.369,100.898 472.413,99.7851 474.457,99.1988 476.501,99.1988 478.545,98.5896 480.589,98.5896 482.632,97.9544 484.676,97.9544 486.72,97.9544 488.764,97.2896 490.808,97.2896 492.852,97.2896 494.895,97.2896 496.939,96.5906 498.983,96.5906 501.027,96.5906 503.071,96.5906 505.115,96.5906 507.159,95.8516 509.202,95.8516 511.246,95.8516 513.29,95.0648 515.334,95.8516 517.378,95.8516 519.422,95.8516 521.466,95.8516 523.509,96.5906 525.553,96.5906 527.597,96.5906 529.641,96.5906 531.685,96.5906 533.729,96.5906 535.772,97.2896 537.816,97.2896 539.86,97.2896 541.904,97.2896 543.948,97.2896 545.992,97.2896 548.036,97.2896 550.079,97.9544 552.123,97.9544 554.167,97.9544 556.211,97.9544 558.255,97.9544 560.299,97.9544 562.343,98.5896 564.386,98.5896 566.43,98.5896 568.474,98.5896 570.518,99.1988 572.562,99.1988 574.606,99.1988 576.65,99.1988 578.693,99.7851 580.737,99.7851 582.781,100.351 584.825,100.351 586.869,100.898 588.913,101.428 590.956,102.444 593,1445.72 595.044,104.77 597.088,102.931 599.132,109.512 601.176,1445.72 603.22,104.77 605.263,103.407 607.307,106.461 609.351,110.91 611.395,1445.72 613.439,105.631 615.483,109.151 617.527,104.326 619.57,122.434 621.614,116.188 623.658,106.864 625.702,1445.72 627.746,113.51 629.79,100.351 631.833,107.26 633.877,105.631 635.921,102.444 637.965,1445.72 640.009,112.882 642.053,103.407 644.097,1445.72 646.14,1445.72 648.184,1445.72 650.228,99.7851 652.272,100.898 654.316,109.151 656.36,103.407 658.404,1445.72 660.447,1445.72 662.491,112.562 664.535,1445.72 666.579,101.428 668.623,111.248 670.667,106.864 672.711,104.326 674.754,1445.72 676.798,1445.72 678.842,1445.72 680.886,1445.72 682.93,101.943 684.974,98.5896 687.017,99.7851 689.061,100.898 691.105,104.326 693.149,113.51 695.193,1445.72 697.237,108.034 699.281,109.512 701.324,104.77 703.368,1445.72 705.412,104.326 707.456,105.631 709.5,104.77 711.544,100.351 713.588,113.51 715.631,110.22 717.675,106.461 719.719,111.583 721.763,106.864 723.807,112.24 725.851,1445.72 727.894,1445.72 729.938,1445.72 731.982,115.612 734.026,1445.72 736.07,1445.72 738.114,1445.72 740.158,99.7851 742.201,97.9544 744.245,98.5896 746.289,99.1988 748.333,100.351 750.377,101.428 752.421,114.428 754.465,101.943 756.508,123.145 758.552,102.444 760.596,111.583 762.64,109.151 764.684,1445.72 766.728,102.931 768.771,1445.72 770.815,100.898 772.859,106.864 774.903,1445.72 776.947,1445.72 778.991,113.51 781.035,1445.72 783.078,101.428 785.122,100.898 787.166,100.898 789.21,106.864 791.254,1445.72 793.298,1445.72 795.342,108.034 797.385,1445.72 799.429,102.444 801.473,1445.72 803.517,103.407 805.561,108.034 807.605,1445.72 809.649,1445.72 811.692,1445.72 813.736,1445.72 815.78,1445.72 817.824,1445.72 819.868,102.931 821.912,1445.72 823.955,103.407 825.999,109.512 828.043,109.512 830.087,102.444 832.131,100.351 834.175,98.5896 836.219,97.9544 838.262,97.2896 840.306,97.9544 842.35,98.5896 844.394,98.5896 846.438,99.1988 848.482,99.7851 850.526,100.898 852.569,102.931 854.613,1445.72 856.657,108.784 858.701,110.91 860.745,104.77 862.789,106.864 864.832,100.351 866.876,113.198 868.92,103.872 870.964,107.65 873.008,101.943 875.052,101.943 877.096,112.24 879.139,112.562 881.183,112.562 883.227,104.77 885.271,100.351 887.315,101.428 889.359,113.819 891.403,114.729 893.446,1445.72 895.49,108.784 897.534,113.819 899.578,1445.72 901.622,114.125 903.666,1445.72 905.71,1445.72 907.753,102.931 909.797,101.943 911.841,97.9544 913.885,100.351 915.929,102.931 917.973,106.461 920.016,101.943 922.06,1445.72 924.104,107.26 926.148,1445.72 928.192,114.125 930.236,103.872 932.28,104.326 934.323,1445.72 936.367,100.351 938.411,1445.72 940.455,113.51 942.499,1445.72 944.543,111.248 946.587,101.943 948.63,102.931 950.674,1445.72 952.718,104.77 954.762,104.77 956.806,1445.72 958.85,1445.72 960.893,1445.72 962.937,1445.72 964.981,1445.72 967.025,1445.72 969.069,1445.72 971.113,1445.72 973.157,1445.72 975.2,1445.72 977.244,1445.72 979.288,1445.72 981.332,1445.72 983.376,1445.72 985.42,1445.72 987.464,1445.72 989.507,1445.72 991.551,1445.72 993.595,1445.72 995.639,1445.72 997.683,1445.72 999.727,1445.72 1001.77,1445.72 1003.81,1445.72 1005.86,1445.72 1007.9,108.412 1009.95,102.931 1011.99,110.567 1014.03,102.444 1016.08,106.864 1018.12,1445.72 1020.17,100.351 1022.21,1445.72 1024.25,113.819 1026.3,105.205 1028.34,1445.72 1030.38,1445.72 1032.43,98.5896 1034.47,100.351 1036.52,1445.72 1038.56,110.91 1040.6,108.784 1042.65,100.898 1044.69,1445.72 1046.74,110.91 1048.78,99.7851 1050.82,109.512 1052.87,102.931 1054.91,106.461 1056.95,1445.72 1059,1445.72 1061.04,100.898 1063.09,99.1988 1065.13,98.5896 1067.17,97.9544 1069.22,97.2896 1071.26,97.2896 1073.31,96.5906 1075.35,96.5906 1077.39,96.5906 1079.44,95.8516 1081.48,95.8516 1083.52,95.8516 1085.57,95.0648 1087.61,95.0648 1089.66,94.2195 1091.7,95.0648 1093.74,95.0648 1095.79,95.8516 1097.83,95.8516 1099.88,95.8516 1101.92,95.8516 1103.96,96.5906 1106.01,96.5906 1108.05,96.5906 1110.09,96.5906 1112.14,96.5906 1114.18,97.2896 1116.23,97.2896 1118.27,97.2896 1120.31,97.2896 1122.36,97.9544 1124.4,97.9544 1126.45,97.9544 1128.49,98.5896 1130.53,98.5896 1132.58,99.1988 1134.62,99.1988 1136.66,99.7851 1138.71,100.351 1140.75,101.428 1142.8,1445.72 1144.84,1445.72 1146.88,105.631 1148.93,101.428 1150.97,1445.72 1153.02,106.461 1155.06,103.407 1157.1,1445.72 1159.15,105.631 1161.19,1445.72 1163.23,113.819 1165.28,1445.72 1167.32,100.898 1169.37,124.531 1171.41,110.22 1173.45,1445.72 1175.5,103.407 1177.54,1445.72 1179.59,101.943 1181.63,100.351 1183.67,115.901 1185.72,103.407 1187.76,1445.72 1189.8,1445.72 1191.85,107.65 1193.89,103.407 1195.94,104.77 1197.98,1445.72 1200.02,101.428 1202.07,100.351 1204.11,98.5896 1206.16,100.898 1208.2,1445.72 1210.24,109.512 1212.29,1445.72 1214.33,106.864 1216.37,104.77 1218.42,1445.72 1220.46,99.1988 1222.51,109.151 1224.55,102.931 1226.59,107.26 1228.64,107.65 1230.68,1445.72 1232.73,1445.72 1234.77,112.562 1236.81,106.05 1238.86,100.351 1240.9,97.9544 1242.94,98.5896 1244.99,99.7851 1247.03,103.407 1249.08,104.326 1251.12,111.248 1253.16,106.864 1255.21,106.864 1257.25,105.205 1259.3,1445.72 1261.34,105.631 1263.38,105.631 1265.43,104.326 1267.47,1445.72 1269.51,99.1988 1271.56,1445.72 1273.6,102.931 1275.65,106.864 1277.69,108.412 1279.73,1445.72 1281.78,1445.72 1283.82,1445.72 1285.87,1445.72 1287.91,1445.72 1289.95,1445.72 1292,1445.72 1294.04,1445.72 1296.09,108.784 1298.13,100.898 1300.17,99.7851 1302.22,97.9544 1304.26,95.8516 1306.3,97.2896 1308.35,97.9544 1310.39,99.1988 1312.44,100.351 1314.48,103.872 1316.52,110.567 1318.57,105.631 1320.61,127.382 1322.66,118.126 1324.7,106.461 1326.74,99.7851 1328.79,107.65 1330.83,114.125 1332.87,1445.72 1334.92,101.428 1336.96,116.188 1339.01,1445.72 1341.05,105.205 1343.09,101.943 1345.14,101.428 1347.18,1445.72 1349.23,1445.72 1351.27,101.428 1353.31,98.5896 1355.36,102.444 1357.4,104.77 1359.44,107.65 1361.49,1445.72 1363.53,121.709 1365.58,109.869 1367.62,106.05 1369.66,101.428 1371.71,101.943 1373.75,103.872 1375.8,101.428 1377.84,1445.72 1379.88,110.567 1381.93,1445.72 1383.97,1445.72 1386.01,1445.72 1388.06,1445.72 1390.1,1445.72 1392.15,1445.72 1394.19,1445.72 1396.23,1445.72 1398.28,1445.72 1400.32,1445.72 1402.37,1445.72 1404.41,1445.72 1406.45,1445.72 1408.5,1445.72 1410.54,1445.72 1412.58,1445.72 1414.63,1445.72 1416.67,1445.72 1418.72,107.65 1420.76,115.612 1422.8,102.444 1424.85,109.869 1426.89,101.428 1428.94,108.784 1430.98,108.784 1433.02,105.631 1435.07,103.872 1437.11,106.05 1439.15,96.5906 1441.2,99.1988 1443.24,1445.72 1445.29,99.1988 1447.33,114.125 1449.37,109.869 1451.42,99.1988 1453.46,97.9544 1455.51,97.2896 1457.55,96.5906 1459.59,95.8516 1461.64,95.8516 1463.68,95.0648 1465.72,95.0648 1467.77,94.2195 1469.81,93.3002 1471.86,94.2195 1473.9,95.0648 1475.94,95.0648 1477.99,95.0648 1480.03,95.8516 1482.08,95.8516 1484.12,95.8516 1486.16,96.5906 1488.21,96.5906 1490.25,96.5906 1492.29,97.2896 1494.34,97.2896 1496.38,97.9544 1498.43,98.5896 1500.47,99.1988 1502.51,100.351 1504.56,105.631 1506.6,109.151 1508.65,100.351 1510.69,106.461 1512.73,118.126 1514.78,100.351 1516.82,105.631 1518.86,1445.72 1520.91,101.428 1522.95,101.428 1525,110.91 1527.04,1445.72 1529.08,99.1988 1531.13,117.309 1533.17,101.943 1535.22,103.872 1537.26,1445.72 1539.3,107.26 1541.35,109.869 1543.39,101.428 1545.43,98.5896 1547.48,106.864 1549.52,1445.72 1551.57,103.407 1553.61,1445.72 1555.65,98.5896 1557.7,1445.72 1559.74,103.872 1561.79,1445.72 1563.83,1445.72 1565.87,120.97 1567.92,99.1988 1569.96,97.2896 1572,99.1988 1574.05,102.931 1576.09,1445.72 1578.14,100.351 1580.18,1445.72 1582.22,1445.72 1584.27,105.205 1586.31,1445.72 1588.36,99.1988 1590.4,111.248 1592.44,110.22 1594.49,104.77 1596.53,109.151 1598.57,1445.72 1600.62,1445.72 1602.66,1445.72 1604.71,99.1988 1606.75,104.77 1608.79,97.9544 1610.84,95.0648 1612.88,97.2896 1614.93,98.5896 1616.97,101.943 1619.01,108.784 1621.06,110.22 1623.1,107.65 1625.15,108.784 1627.19,110.567 1629.23,1445.72 1631.28,98.5896 1633.32,117.309 1635.36,120.97 1637.41,111.913 1639.45,1445.72 1641.5,106.864 1643.54,98.5896 1645.58,1445.72 1647.63,1445.72 1649.67,102.931 1651.72,1445.72 1653.76,99.7851 1655.8,110.22 1657.85,100.351 1659.89,101.428 1661.93,1445.72 1663.98,1445.72 1666.02,1445.72 1668.07,1445.72 1670.11,1445.72 1672.15,1445.72 1674.2,1445.72 1676.24,1445.72 1678.29,1445.72 1680.33,1445.72 1682.37,1445.72 1684.42,1445.72 1686.46,104.77 1688.5,1445.72 1690.55,1445.72 1692.59,110.91 1694.64,102.444 1696.68,1445.72 1698.72,98.5896 1700.77,109.512 1702.81,1445.72 1704.86,1445.72 1706.9,1445.72 1708.94,97.9544 1710.99,96.5906 1713.03,95.0648 1715.07,95.0648 1717.12,94.2195 1719.16,93.3002 1721.21,93.3002 1723.25,94.2195 1725.29,94.2195 1727.34,95.0648 1729.38,95.0648 1731.43,95.8516 1733.47,95.8516 1735.51,96.5906 1737.56,97.2896 1739.6,97.9544 1741.64,99.1988 1743.69,108.034 1745.73,102.931 1747.78,100.351 1749.82,121.464 1751.86,101.428 1753.91,97.9544 1755.95,1445.72 1758,106.864 1760.04,95.8516 1762.08,115.32 1764.13,1445.72 1766.17,129.455 1768.21,1445.72 1770.26,96.5906 1772.3,1445.72 1774.35,111.583 1776.39,109.151 1778.43,1445.72 1780.48,102.444 1782.52,1445.72 1784.57,1445.72 1786.61,96.5906 1788.65,98.5896 1790.7,108.784 1792.74,101.943 1794.78,105.631 1796.83,1445.72 1798.87,1445.72 1800.92,107.26 1802.96,1445.72 1805,104.326 1807.05,1445.72 1809.09,112.882 1811.14,1445.72 1813.18,98.5896 1815.22,95.0648 1817.27,97.2896 1819.31,104.326 1821.35,114.729 1823.4,1445.72 1825.44,1445.72 1827.49,103.407 1829.53,99.7851 1831.57,106.864 1833.62,104.77 1835.66,1445.72 1837.71,99.1988 1839.75,106.05 1841.79,1445.72 1843.84,106.05 1845.88,108.784 1847.92,103.407 1849.97,112.24 1852.01,1445.72 1854.06,1445.72 1856.1,1445.72 1858.14,1445.72 1860.19,1445.72 1862.23,1445.72 1864.28,1445.72 1866.32,1445.72 1868.36,102.931 1870.41,1445.72 1872.45,102.444 1874.49,1445.72 1876.54,106.05 1878.58,97.9544 1880.63,108.034 1882.67,97.9544 1884.71,95.8516 1886.76,94.2195 1888.8,93.3002 1890.85,92.2834 1892.89,92.2834 1894.93,93.3002 1896.98,94.2195 1899.02,95.0648 1901.06,95.0648 1903.11,95.8516 1905.15,97.2896 1907.2,99.1988 1909.24,109.869 1911.28,1445.72 1913.33,98.5896 1915.37,1445.72 1917.42,104.77 1919.46,1445.72 1921.5,103.872 1923.55,105.631 1925.59,101.428 1927.63,102.931 1929.68,111.913 1931.72,101.943 1933.77,1445.72 1935.81,110.567 1937.85,1445.72 1939.9,107.65 1941.94,96.5906 1943.99,1445.72 1946.03,98.5896 1948.07,99.7851 1950.12,110.22 1952.16,111.248 1954.2,106.05 1956.25,106.461 1958.29,1445.72 1960.34,1445.72 1962.38,98.5896 1964.42,95.0648 1966.47,97.2896 1968.51,111.248 1970.56,98.5896 1972.6,99.7851 1974.64,117.032 1976.69,1445.72 1978.73,98.5896 1980.78,1445.72 1982.82,96.5906 1984.86,1445.72 1986.91,104.77 1988.95,106.05 1990.99,105.205 1993.04,1445.72 1995.08,1445.72 1997.13,1445.72 1999.17,1445.72 2001.21,1445.72 2003.26,1445.72 2005.3,1445.72 2007.35,1445.72 2009.39,111.583 2011.43,1445.72 2013.48,107.26 2015.52,102.931 2017.56,1445.72 2019.61,1445.72 2021.65,1445.72 2023.7,1445.72 2025.74,111.583 2027.78,95.0648 2029.83,94.2195 2031.87,93.3002 2033.92,92.2834 2035.96,87.9763 2038,92.2834 2040.05,92.2834 2042.09,93.3002 2044.13,93.3002 2046.18,94.2195 2048.22,95.0648 2050.27,95.8516 2052.31,96.5906 2054.35,98.5896 2056.4,101.428 2058.44,1445.72 2060.49,1445.72 2062.53,106.461 2064.57,1445.72 2066.62,1445.72 2068.66,1445.72 2070.7,1445.72 2072.75,104.326 2074.79,108.784 2076.84,109.512 2078.88,106.461 2080.92,101.428 2082.97,95.8516 2085.01,106.05 2087.06,115.32 2089.1,1445.72 2091.14,101.943 2093.19,99.7851 2095.23,99.1988 2097.27,1445.72 2099.32,107.26 2101.36,103.872 2103.41,94.2195 2105.45,97.2896 2107.49,1445.72 2109.54,101.943 2111.58,1445.72 2113.63,1445.72 2115.67,104.77 2117.71,121.709 2119.76,1445.72 2121.8,98.5896 2123.84,100.898 2125.89,101.428 2127.93,101.428 2129.98,108.784 2132.02,1445.72 2134.06,1445.72 2136.11,1445.72 2138.15,112.562 2140.2,115.32 2142.24,1445.72 2144.28,97.2896 2146.33,94.2195 2148.37,93.3002 2150.41,95.0648 2152.46,95.8516 2154.5,97.2896 2156.55,1445.72 2158.59,1445.72 2160.63,1445.72 2162.68,1445.72 2164.72,108.784 2166.77,104.326 2168.81,99.1988 2170.85,104.77 2172.9,1445.72 2174.94,1445.72 2176.98,1445.72 2179.03,96.5906 2181.07,115.901 2183.12,101.428 2185.16,110.22 2187.2,98.5896 2189.25,103.872 2191.29,100.898 2193.34,1445.72 2195.38,1445.72 2197.42,102.444 2199.47,95.8516 2201.51,96.5906 2203.55,99.7851 2205.6,120.97 2207.64,100.351 2209.69,1445.72 2211.73,1445.72 2213.77,108.034 2215.82,106.461 2217.86,1445.72 2219.91,105.205 2221.95,1445.72 2223.99,97.2896 2226.04,102.444 2228.08,110.567 2230.12,116.753 2232.17,100.898 2234.21,1445.72 2236.26,100.351 2238.3,1445.72 2240.34,119.705 2242.39,104.326 2244.43,1445.72 2246.48,103.407 2248.52,1445.72 2250.56,1445.72 2252.61,1445.72 2254.65,1445.72 2256.69,1445.72 2258.74,1445.72 2260.78,1445.72 2262.83,1445.72 2264.87,1445.72 2266.91,1445.72 2268.96,1445.72 2271,1445.72 2273.05,1445.72 2275.09,1445.72 2277.13,1445.72 2279.18,1445.72 2281.22,1445.72 2283.26,1445.72 2285.31,1445.72 2287.35,1445.72 2289.4,1445.72 2291.44,1445.72 "/>
<path clip-path="url(#clip030)" d="M258.49 1438.47 L527.569 1438.47 L527.569 1334.79 L258.49 1334.79  Z" fill="#ffffff" fill-rule="evenodd" fill-opacity="1"/>
<polyline clip-path="url(#clip030)" style="stroke:#000000; stroke-linecap:round; stroke-linejoin:round; stroke-width:4; stroke-opacity:1; fill:none" points="258.49,1438.47 527.569,1438.47 527.569,1334.79 258.49,1334.79 258.49,1438.47 "/>
<polyline clip-path="url(#clip030)" style="stroke:#009af9; stroke-linecap:round; stroke-linejoin:round; stroke-width:4; stroke-opacity:1; fill:none" points="282.562,1386.63 426.994,1386.63 "/>
<path clip-path="url(#clip030)" d="M464.909 1406.32 Q463.103 1410.95 461.39 1412.36 Q459.677 1413.78 456.807 1413.78 L453.404 1413.78 L453.404 1410.21 L455.904 1410.21 Q457.663 1410.21 458.636 1409.38 Q459.608 1408.54 460.788 1405.44 L461.552 1403.5 L451.066 1377.99 L455.58 1377.99 L463.682 1398.27 L471.784 1377.99 L476.298 1377.99 L464.909 1406.32 Z" fill="#000000" fill-rule="nonzero" fill-opacity="1" /><path clip-path="url(#clip030)" d="M483.589 1399.98 L491.228 1399.98 L491.228 1373.61 L482.918 1375.28 L482.918 1371.02 L491.182 1369.35 L495.858 1369.35 L495.858 1399.98 L503.497 1399.98 L503.497 1403.91 L483.589 1403.91 L483.589 1399.98 Z" fill="#000000" fill-rule="nonzero" fill-opacity="1" /></svg>
