<?xml version="1.0" encoding="utf-8"?>
<svg xmlns="http://www.w3.org/2000/svg" xmlns:xlink="http://www.w3.org/1999/xlink" width="600" height="400" viewBox="0 0 2400 1600">
<defs>
  <clipPath id="clip060">
    <rect x="0" y="0" width="2400" height="1600"/>
  </clipPath>
</defs>
<path clip-path="url(#clip060)" d="M0 1600 L2400 1600 L2400 0 L0 0  Z" fill="#ffffff" fill-rule="evenodd" fill-opacity="1"/>
<defs>
  <clipPath id="clip061">
    <rect x="480" y="0" width="1681" height="1600"/>
  </clipPath>
</defs>
<path clip-path="url(#clip060)" d="M186.274 1486.45 L2352.76 1486.45 L2352.76 47.2441 L186.274 47.2441  Z" fill="#ffffff" fill-rule="evenodd" fill-opacity="1"/>
<defs>
  <clipPath id="clip062">
    <rect x="186" y="47" width="2167" height="1440"/>
  </clipPath>
</defs>
<polyline clip-path="url(#clip062)" style="stroke:#000000; stroke-linecap:round; stroke-linejoin:round; stroke-width:2; stroke-opacity:0.1; fill:none" points="247.59,1486.45 247.59,47.2441 "/>
<polyline clip-path="url(#clip062)" style="stroke:#000000; stroke-linecap:round; stroke-linejoin:round; stroke-width:2; stroke-opacity:0.1; fill:none" points="758.552,1486.45 758.552,47.2441 "/>
<polyline clip-path="url(#clip062)" style="stroke:#000000; stroke-linecap:round; stroke-linejoin:round; stroke-width:2; stroke-opacity:0.1; fill:none" points="1269.51,1486.45 1269.51,47.2441 "/>
<polyline clip-path="url(#clip062)" style="stroke:#000000; stroke-linecap:round; stroke-linejoin:round; stroke-width:2; stroke-opacity:0.1; fill:none" points="1780.48,1486.45 1780.48,47.2441 "/>
<polyline clip-path="url(#clip062)" style="stroke:#000000; stroke-linecap:round; stroke-linejoin:round; stroke-width:2; stroke-opacity:0.1; fill:none" points="2291.44,1486.45 2291.44,47.2441 "/>
<polyline clip-path="url(#clip062)" style="stroke:#000000; stroke-linecap:round; stroke-linejoin:round; stroke-width:2; stroke-opacity:0.1; fill:none" points="186.274,1445.72 2352.76,1445.72 "/>
<polyline clip-path="url(#clip062)" style="stroke:#000000; stroke-linecap:round; stroke-linejoin:round; stroke-width:2; stroke-opacity:0.1; fill:none" points="186.274,1106.17 2352.76,1106.17 "/>
<polyline clip-path="url(#clip062)" style="stroke:#000000; stroke-linecap:round; stroke-linejoin:round; stroke-width:2; stroke-opacity:0.1; fill:none" points="186.274,766.631 2352.76,766.631 "/>
<polyline clip-path="url(#clip062)" style="stroke:#000000; stroke-linecap:round; stroke-linejoin:round; stroke-width:2; stroke-opacity:0.1; fill:none" points="186.274,427.089 2352.76,427.089 "/>
<polyline clip-path="url(#clip062)" style="stroke:#000000; stroke-linecap:round; stroke-linejoin:round; stroke-width:2; stroke-opacity:0.1; fill:none" points="186.274,87.5468 2352.76,87.5468 "/>
<polyline clip-path="url(#clip060)" style="stroke:#000000; stroke-linecap:round; stroke-linejoin:round; stroke-width:4; stroke-opacity:1; fill:none" points="186.274,1486.45 2352.76,1486.45 "/>
<polyline clip-path="url(#clip060)" style="stroke:#000000; stroke-linecap:round; stroke-linejoin:round; stroke-width:4; stroke-opacity:1; fill:none" points="247.59,1486.45 247.59,1467.55 "/>
<polyline clip-path="url(#clip060)" style="stroke:#000000; stroke-linecap:round; stroke-linejoin:round; stroke-width:4; stroke-opacity:1; fill:none" points="758.552,1486.45 758.552,1467.55 "/>
<polyline clip-path="url(#clip060)" style="stroke:#000000; stroke-linecap:round; stroke-linejoin:round; stroke-width:4; stroke-opacity:1; fill:none" points="1269.51,1486.45 1269.51,1467.55 "/>
<polyline clip-path="url(#clip060)" style="stroke:#000000; stroke-linecap:round; stroke-linejoin:round; stroke-width:4; stroke-opacity:1; fill:none" points="1780.48,1486.45 1780.48,1467.55 "/>
<polyline clip-path="url(#clip060)" style="stroke:#000000; stroke-linecap:round; stroke-linejoin:round; stroke-width:4; stroke-opacity:1; fill:none" points="2291.44,1486.45 2291.44,1467.55 "/>
<path clip-path="url(#clip060)" d="M216.49 1532.02 L246.166 1532.02 L246.166 1535.95 L216.49 1535.95 L216.49 1532.02 Z" fill="#000000" fill-rule="nonzero" fill-opacity="1" /><path clip-path="url(#clip060)" d="M269.106 1518.36 L257.3 1536.81 L269.106 1536.81 L269.106 1518.36 M267.879 1514.29 L273.758 1514.29 L273.758 1536.81 L278.689 1536.81 L278.689 1540.7 L273.758 1540.7 L273.758 1548.85 L269.106 1548.85 L269.106 1540.7 L253.504 1540.7 L253.504 1536.19 L267.879 1514.29 Z" fill="#000000" fill-rule="nonzero" fill-opacity="1" /><path clip-path="url(#clip060)" d="M728.02 1532.02 L757.696 1532.02 L757.696 1535.95 L728.02 1535.95 L728.02 1532.02 Z" fill="#000000" fill-rule="nonzero" fill-opacity="1" /><path clip-path="url(#clip060)" d="M781.955 1530.21 Q785.311 1530.93 787.186 1533.2 Q789.084 1535.47 789.084 1538.8 Q789.084 1543.92 785.566 1546.72 Q782.047 1549.52 775.566 1549.52 Q773.39 1549.52 771.075 1549.08 Q768.784 1548.66 766.33 1547.81 L766.33 1543.29 Q768.274 1544.43 770.589 1545.01 Q772.904 1545.58 775.427 1545.58 Q779.825 1545.58 782.117 1543.85 Q784.432 1542.11 784.432 1538.8 Q784.432 1535.75 782.279 1534.03 Q780.149 1532.3 776.33 1532.3 L772.302 1532.3 L772.302 1528.45 L776.515 1528.45 Q779.964 1528.45 781.793 1527.09 Q783.622 1525.7 783.622 1523.11 Q783.622 1520.45 781.723 1519.03 Q779.848 1517.6 776.33 1517.6 Q774.409 1517.6 772.21 1518.01 Q770.011 1518.43 767.372 1519.31 L767.372 1515.14 Q770.034 1514.4 772.348 1514.03 Q774.686 1513.66 776.747 1513.66 Q782.071 1513.66 785.172 1516.09 Q788.274 1518.5 788.274 1522.62 Q788.274 1525.49 786.631 1527.48 Q784.987 1529.45 781.955 1530.21 Z" fill="#000000" fill-rule="nonzero" fill-opacity="1" /><path clip-path="url(#clip060)" d="M1239.46 1532.02 L1269.13 1532.02 L1269.13 1535.95 L1239.46 1535.95 L1239.46 1532.02 Z" fill="#000000" fill-rule="nonzero" fill-opacity="1" /><path clip-path="url(#clip060)" d="M1283.25 1544.91 L1299.57 1544.91 L1299.57 1548.85 L1277.63 1548.85 L1277.63 1544.91 Q1280.29 1542.16 1284.87 1537.53 Q1289.48 1532.88 1290.66 1531.53 Q1292.91 1529.01 1293.79 1527.27 Q1294.69 1525.51 1294.69 1523.82 Q1294.69 1521.07 1292.74 1519.33 Q1290.82 1517.6 1287.72 1517.6 Q1285.52 1517.6 1283.07 1518.36 Q1280.64 1519.13 1277.86 1520.68 L1277.86 1515.95 Q1280.68 1514.82 1283.14 1514.24 Q1285.59 1513.66 1287.63 1513.66 Q1293 1513.66 1296.19 1516.35 Q1299.39 1519.03 1299.39 1523.52 Q1299.39 1525.65 1298.58 1527.57 Q1297.79 1529.47 1295.68 1532.07 Q1295.11 1532.74 1292 1535.95 Q1288.9 1539.15 1283.25 1544.91 Z" fill="#000000" fill-rule="nonzero" fill-opacity="1" /><path clip-path="url(#clip060)" d="M1750.23 1532.02 L1779.91 1532.02 L1779.91 1535.95 L1750.23 1535.95 L1750.23 1532.02 Z" fill="#000000" fill-rule="nonzero" fill-opacity="1" /><path clip-path="url(#clip060)" d="M1790.81 1544.91 L1798.45 1544.91 L1798.45 1518.55 L1790.14 1520.21 L1790.14 1515.95 L1798.41 1514.29 L1803.08 1514.29 L1803.08 1544.91 L1810.72 1544.91 L1810.72 1548.85 L1790.81 1548.85 L1790.81 1544.91 Z" fill="#000000" fill-rule="nonzero" fill-opacity="1" /><path clip-path="url(#clip060)" d="M2291.44 1517.37 Q2287.83 1517.37 2286 1520.93 Q2284.2 1524.47 2284.2 1531.6 Q2284.2 1538.71 2286 1542.27 Q2287.83 1545.82 2291.44 1545.82 Q2295.07 1545.82 2296.88 1542.27 Q2298.71 1538.71 2298.71 1531.6 Q2298.71 1524.47 2296.88 1520.93 Q2295.07 1517.37 2291.44 1517.37 M2291.44 1513.66 Q2297.25 1513.66 2300.31 1518.27 Q2303.38 1522.85 2303.38 1531.6 Q2303.38 1540.33 2300.31 1544.94 Q2297.25 1549.52 2291.44 1549.52 Q2285.63 1549.52 2282.55 1544.94 Q2279.5 1540.33 2279.5 1531.6 Q2279.5 1522.85 2282.55 1518.27 Q2285.63 1513.66 2291.44 1513.66 Z" fill="#000000" fill-rule="nonzero" fill-opacity="1" /><polyline clip-path="url(#clip060)" style="stroke:#000000; stroke-linecap:round; stroke-linejoin:round; stroke-width:4; stroke-opacity:1; fill:none" points="186.274,1486.45 186.274,47.2441 "/>
<polyline clip-path="url(#clip060)" style="stroke:#000000; stroke-linecap:round; stroke-linejoin:round; stroke-width:4; stroke-opacity:1; fill:none" points="186.274,1445.72 205.172,1445.72 "/>
<polyline clip-path="url(#clip060)" style="stroke:#000000; stroke-linecap:round; stroke-linejoin:round; stroke-width:4; stroke-opacity:1; fill:none" points="186.274,1106.17 205.172,1106.17 "/>
<polyline clip-path="url(#clip060)" style="stroke:#000000; stroke-linecap:round; stroke-linejoin:round; stroke-width:4; stroke-opacity:1; fill:none" points="186.274,766.631 205.172,766.631 "/>
<polyline clip-path="url(#clip060)" style="stroke:#000000; stroke-linecap:round; stroke-linejoin:round; stroke-width:4; stroke-opacity:1; fill:none" points="186.274,427.089 205.172,427.089 "/>
<polyline clip-path="url(#clip060)" style="stroke:#000000; stroke-linecap:round; stroke-linejoin:round; stroke-width:4; stroke-opacity:1; fill:none" points="186.274,87.5468 205.172,87.5468 "/>
<path clip-path="url(#clip060)" d="M62.9365 1431.51 Q59.3254 1431.51 57.4967 1435.08 Q55.6912 1438.62 55.6912 1445.75 Q55.6912 1452.86 57.4967 1456.42 Q59.3254 1459.96 62.9365 1459.96 Q66.5707 1459.96 68.3763 1456.42 Q70.205 1452.86 70.205 1445.75 Q70.205 1438.62 68.3763 1435.08 Q66.5707 1431.51 62.9365 1431.51 M62.9365 1427.81 Q68.7467 1427.81 71.8022 1432.42 Q74.8809 1437 74.8809 1445.75 Q74.8809 1454.48 71.8022 1459.08 Q68.7467 1463.67 62.9365 1463.67 Q57.1264 1463.67 54.0477 1459.08 Q50.9921 1454.48 50.9921 1445.75 Q50.9921 1437 54.0477 1432.42 Q57.1264 1427.81 62.9365 1427.81 Z" fill="#000000" fill-rule="nonzero" fill-opacity="1" /><path clip-path="url(#clip060)" d="M83.0984 1457.12 L87.9827 1457.12 L87.9827 1463 L83.0984 1463 L83.0984 1457.12 Z" fill="#000000" fill-rule="nonzero" fill-opacity="1" /><path clip-path="url(#clip060)" d="M108.168 1431.51 Q104.557 1431.51 102.728 1435.08 Q100.922 1438.62 100.922 1445.75 Q100.922 1452.86 102.728 1456.42 Q104.557 1459.96 108.168 1459.96 Q111.802 1459.96 113.608 1456.42 Q115.436 1452.86 115.436 1445.75 Q115.436 1438.62 113.608 1435.08 Q111.802 1431.51 108.168 1431.51 M108.168 1427.81 Q113.978 1427.81 117.033 1432.42 Q120.112 1437 120.112 1445.75 Q120.112 1454.48 117.033 1459.08 Q113.978 1463.67 108.168 1463.67 Q102.358 1463.67 99.2789 1459.08 Q96.2234 1454.48 96.2234 1445.75 Q96.2234 1437 99.2789 1432.42 Q102.358 1427.81 108.168 1427.81 Z" fill="#000000" fill-rule="nonzero" fill-opacity="1" /><path clip-path="url(#clip060)" d="M138.33 1431.51 Q134.719 1431.51 132.89 1435.08 Q131.084 1438.62 131.084 1445.75 Q131.084 1452.86 132.89 1456.42 Q134.719 1459.96 138.33 1459.96 Q141.964 1459.96 143.769 1456.42 Q145.598 1452.86 145.598 1445.75 Q145.598 1438.62 143.769 1435.08 Q141.964 1431.51 138.33 1431.51 M138.33 1427.81 Q144.14 1427.81 147.195 1432.42 Q150.274 1437 150.274 1445.75 Q150.274 1454.48 147.195 1459.08 Q144.14 1463.67 138.33 1463.67 Q132.519 1463.67 129.441 1459.08 Q126.385 1454.48 126.385 1445.75 Q126.385 1437 129.441 1432.42 Q132.519 1427.81 138.33 1427.81 Z" fill="#000000" fill-rule="nonzero" fill-opacity="1" /><path clip-path="url(#clip060)" d="M63.9319 1091.97 Q60.3208 1091.97 58.4921 1095.54 Q56.6865 1099.08 56.6865 1106.21 Q56.6865 1113.31 58.4921 1116.88 Q60.3208 1120.42 63.9319 1120.42 Q67.5661 1120.42 69.3717 1116.88 Q71.2004 1113.31 71.2004 1106.21 Q71.2004 1099.08 69.3717 1095.54 Q67.5661 1091.97 63.9319 1091.97 M63.9319 1088.27 Q69.742 1088.27 72.7976 1092.87 Q75.8763 1097.46 75.8763 1106.21 Q75.8763 1114.93 72.7976 1119.54 Q69.742 1124.12 63.9319 1124.12 Q58.1217 1124.12 55.043 1119.54 Q51.9875 1114.93 51.9875 1106.21 Q51.9875 1097.46 55.043 1092.87 Q58.1217 1088.27 63.9319 1088.27 Z" fill="#000000" fill-rule="nonzero" fill-opacity="1" /><path clip-path="url(#clip060)" d="M84.0938 1117.57 L88.978 1117.57 L88.978 1123.45 L84.0938 1123.45 L84.0938 1117.57 Z" fill="#000000" fill-rule="nonzero" fill-opacity="1" /><path clip-path="url(#clip060)" d="M103.191 1119.52 L119.51 1119.52 L119.51 1123.45 L97.566 1123.45 L97.566 1119.52 Q100.228 1116.76 104.811 1112.13 Q109.418 1107.48 110.598 1106.14 Q112.844 1103.62 113.723 1101.88 Q114.626 1100.12 114.626 1098.43 Q114.626 1095.68 112.682 1093.94 Q110.76 1092.2 107.658 1092.2 Q105.459 1092.2 103.006 1092.97 Q100.575 1093.73 97.7974 1095.28 L97.7974 1090.56 Q100.621 1089.43 103.075 1088.85 Q105.529 1088.27 107.566 1088.27 Q112.936 1088.27 116.131 1090.95 Q119.325 1093.64 119.325 1098.13 Q119.325 1100.26 118.515 1102.18 Q117.728 1104.08 115.621 1106.67 Q115.043 1107.34 111.941 1110.56 Q108.839 1113.75 103.191 1119.52 Z" fill="#000000" fill-rule="nonzero" fill-opacity="1" /><path clip-path="url(#clip060)" d="M129.371 1088.89 L147.728 1088.89 L147.728 1092.83 L133.654 1092.83 L133.654 1101.3 Q134.672 1100.95 135.691 1100.79 Q136.709 1100.61 137.728 1100.61 Q143.515 1100.61 146.894 1103.78 Q150.274 1106.95 150.274 1112.37 Q150.274 1117.94 146.802 1121.05 Q143.33 1124.12 137.01 1124.12 Q134.834 1124.12 132.566 1123.75 Q130.32 1123.38 127.913 1122.64 L127.913 1117.94 Q129.996 1119.08 132.219 1119.63 Q134.441 1120.19 136.918 1120.19 Q140.922 1120.19 143.26 1118.08 Q145.598 1115.98 145.598 1112.37 Q145.598 1108.75 143.26 1106.65 Q140.922 1104.54 136.918 1104.54 Q135.043 1104.54 133.168 1104.96 Q131.316 1105.37 129.371 1106.25 L129.371 1088.89 Z" fill="#000000" fill-rule="nonzero" fill-opacity="1" /><path clip-path="url(#clip060)" d="M62.9365 752.43 Q59.3254 752.43 57.4967 755.995 Q55.6912 759.536 55.6912 766.666 Q55.6912 773.772 57.4967 777.337 Q59.3254 780.879 62.9365 780.879 Q66.5707 780.879 68.3763 777.337 Q70.205 773.772 70.205 766.666 Q70.205 759.536 68.3763 755.995 Q66.5707 752.43 62.9365 752.43 M62.9365 748.726 Q68.7467 748.726 71.8022 753.333 Q74.8809 757.916 74.8809 766.666 Q74.8809 775.393 71.8022 779.999 Q68.7467 784.583 62.9365 784.583 Q57.1264 784.583 54.0477 779.999 Q50.9921 775.393 50.9921 766.666 Q50.9921 757.916 54.0477 753.333 Q57.1264 748.726 62.9365 748.726 Z" fill="#000000" fill-rule="nonzero" fill-opacity="1" /><path clip-path="url(#clip060)" d="M83.0984 778.032 L87.9827 778.032 L87.9827 783.911 L83.0984 783.911 L83.0984 778.032 Z" fill="#000000" fill-rule="nonzero" fill-opacity="1" /><path clip-path="url(#clip060)" d="M98.2141 749.351 L116.57 749.351 L116.57 753.286 L102.496 753.286 L102.496 761.759 Q103.515 761.411 104.534 761.249 Q105.552 761.064 106.571 761.064 Q112.358 761.064 115.737 764.235 Q119.117 767.407 119.117 772.823 Q119.117 778.402 115.645 781.504 Q112.172 784.583 105.853 784.583 Q103.677 784.583 101.409 784.212 Q99.1632 783.842 96.7558 783.101 L96.7558 778.402 Q98.8391 779.536 101.061 780.092 Q103.284 780.647 105.76 780.647 Q109.765 780.647 112.103 778.541 Q114.441 776.434 114.441 772.823 Q114.441 769.212 112.103 767.106 Q109.765 764.999 105.76 764.999 Q103.885 764.999 102.01 765.416 Q100.159 765.833 98.2141 766.712 L98.2141 749.351 Z" fill="#000000" fill-rule="nonzero" fill-opacity="1" /><path clip-path="url(#clip060)" d="M138.33 752.43 Q134.719 752.43 132.89 755.995 Q131.084 759.536 131.084 766.666 Q131.084 773.772 132.89 777.337 Q134.719 780.879 138.33 780.879 Q141.964 780.879 143.769 777.337 Q145.598 773.772 145.598 766.666 Q145.598 759.536 143.769 755.995 Q141.964 752.43 138.33 752.43 M138.33 748.726 Q144.14 748.726 147.195 753.333 Q150.274 757.916 150.274 766.666 Q150.274 775.393 147.195 779.999 Q144.14 784.583 138.33 784.583 Q132.519 784.583 129.441 779.999 Q126.385 775.393 126.385 766.666 Q126.385 757.916 129.441 753.333 Q132.519 748.726 138.33 748.726 Z" fill="#000000" fill-rule="nonzero" fill-opacity="1" /><path clip-path="url(#clip060)" d="M63.9319 412.888 Q60.3208 412.888 58.4921 416.452 Q56.6865 419.994 56.6865 427.124 Q56.6865 434.23 58.4921 437.795 Q60.3208 441.337 63.9319 441.337 Q67.5661 441.337 69.3717 437.795 Q71.2004 434.23 71.2004 427.124 Q71.2004 419.994 69.3717 416.452 Q67.5661 412.888 63.9319 412.888 M63.9319 409.184 Q69.742 409.184 72.7976 413.79 Q75.8763 418.374 75.8763 427.124 Q75.8763 435.851 72.7976 440.457 Q69.742 445.04 63.9319 445.04 Q58.1217 445.04 55.043 440.457 Q51.9875 435.851 51.9875 427.124 Q51.9875 418.374 55.043 413.79 Q58.1217 409.184 63.9319 409.184 Z" fill="#000000" fill-rule="nonzero" fill-opacity="1" /><path clip-path="url(#clip060)" d="M84.0938 438.489 L88.978 438.489 L88.978 444.369 L84.0938 444.369 L84.0938 438.489 Z" fill="#000000" fill-rule="nonzero" fill-opacity="1" /><path clip-path="url(#clip060)" d="M97.9826 409.809 L120.205 409.809 L120.205 411.8 L107.658 444.369 L102.774 444.369 L114.58 413.744 L97.9826 413.744 L97.9826 409.809 Z" fill="#000000" fill-rule="nonzero" fill-opacity="1" /><path clip-path="url(#clip060)" d="M129.371 409.809 L147.728 409.809 L147.728 413.744 L133.654 413.744 L133.654 422.216 Q134.672 421.869 135.691 421.707 Q136.709 421.522 137.728 421.522 Q143.515 421.522 146.894 424.693 Q150.274 427.864 150.274 433.281 Q150.274 438.86 146.802 441.962 Q143.33 445.04 137.01 445.04 Q134.834 445.04 132.566 444.67 Q130.32 444.3 127.913 443.559 L127.913 438.86 Q129.996 439.994 132.219 440.55 Q134.441 441.105 136.918 441.105 Q140.922 441.105 143.26 438.999 Q145.598 436.892 145.598 433.281 Q145.598 429.67 143.26 427.564 Q140.922 425.457 136.918 425.457 Q135.043 425.457 133.168 425.874 Q131.316 426.29 129.371 427.17 L129.371 409.809 Z" fill="#000000" fill-rule="nonzero" fill-opacity="1" /><path clip-path="url(#clip060)" d="M53.7467 100.892 L61.3856 100.892 L61.3856 74.526 L53.0754 76.1927 L53.0754 71.9334 L61.3393 70.2668 L66.0152 70.2668 L66.0152 100.892 L73.654 100.892 L73.654 104.827 L53.7467 104.827 L53.7467 100.892 Z" fill="#000000" fill-rule="nonzero" fill-opacity="1" /><path clip-path="url(#clip060)" d="M83.0984 98.9472 L87.9827 98.9472 L87.9827 104.827 L83.0984 104.827 L83.0984 98.9472 Z" fill="#000000" fill-rule="nonzero" fill-opacity="1" /><path clip-path="url(#clip060)" d="M108.168 73.3455 Q104.557 73.3455 102.728 76.9103 Q100.922 80.4519 100.922 87.5815 Q100.922 94.688 102.728 98.2527 Q104.557 101.794 108.168 101.794 Q111.802 101.794 113.608 98.2527 Q115.436 94.688 115.436 87.5815 Q115.436 80.4519 113.608 76.9103 Q111.802 73.3455 108.168 73.3455 M108.168 69.6418 Q113.978 69.6418 117.033 74.2482 Q120.112 78.8316 120.112 87.5815 Q120.112 96.3083 117.033 100.915 Q113.978 105.498 108.168 105.498 Q102.358 105.498 99.2789 100.915 Q96.2234 96.3083 96.2234 87.5815 Q96.2234 78.8316 99.2789 74.2482 Q102.358 69.6418 108.168 69.6418 Z" fill="#000000" fill-rule="nonzero" fill-opacity="1" /><path clip-path="url(#clip060)" d="M138.33 73.3455 Q134.719 73.3455 132.89 76.9103 Q131.084 80.4519 131.084 87.5815 Q131.084 94.688 132.89 98.2527 Q134.719 101.794 138.33 101.794 Q141.964 101.794 143.769 98.2527 Q145.598 94.688 145.598 87.5815 Q145.598 80.4519 143.769 76.9103 Q141.964 73.3455 138.33 73.3455 M138.33 69.6418 Q144.14 69.6418 147.195 74.2482 Q150.274 78.8316 150.274 87.5815 Q150.274 96.3083 147.195 100.915 Q144.14 105.498 138.33 105.498 Q132.519 105.498 129.441 100.915 Q126.385 96.3083 126.385 87.5815 Q126.385 78.8316 129.441 74.2482 Q132.519 69.6418 138.33 69.6418 Z" fill="#000000" fill-rule="nonzero" fill-opacity="1" /><polyline clip-path="url(#clip062)" style="stroke:#009af9; stroke-linecap:round; stroke-linejoin:round; stroke-width:4; stroke-opacity:1; fill:none" points="247.59,89.2647 249.633,89.4675 251.677,1445.72 253.721,1445.72 255.765,1445.72 257.809,1445.72 259.853,89.4189 261.896,89.515 263.94,89.6509 265.984,1445.72 268.028,89.7785 270.072,89.6509 272.116,1445.72 274.16,90.5224 276.203,1445.72 278.247,90.3957 280.291,89.4189 282.335,89.3176 284.379,1445.72 286.423,89.8194 288.467,1445.72 290.51,89.369 292.554,89.7785 294.598,1445.72 296.642,89.3176 298.686,1445.72 300.73,89.4675 302.774,1445.72 304.817,90.5837 306.861,89.7368 308.905,91.0885 310.949,1445.72 312.993,1445.72 315.037,1445.72 317.08,1445.72 319.124,1445.72 321.168,1445.72 323.212,1445.72 325.256,1445.72 327.3,1445.72 329.344,1445.72 331.387,1445.72 333.431,1445.72 335.475,1445.72 337.519,1445.72 339.563,1445.72 341.607,1445.72 343.651,1445.72 345.694,1445.72 347.738,1445.72 349.782,1445.72 351.826,1445.72 353.87,1445.72 355.914,1445.72 357.957,1445.72 360.001,1445.72 362.045,1445.72 364.089,1445.72 366.133,1445.72 368.177,1445.72 370.221,1445.72 372.264,1445.72 374.308,1445.72 376.352,1445.72 378.396,1445.72 380.44,1445.72 382.484,1445.72 384.528,1445.72 386.571,1445.72 388.615,90.614 390.659,90.1593 392.703,89.6509 394.747,89.4675 396.791,1445.72 398.834,89.4675 400.878,1445.72 402.922,1445.72 404.966,90.0877 407.01,89.4675 409.054,89.3176 411.098,1445.72 413.141,89.6942 415.185,89.7785 417.229,89.6066 419.273,1445.72 421.317,89.4675 423.361,1445.72 425.405,89.2102 427.448,89.0346 429.492,90.5532 431.536,1445.72 433.58,1445.72 435.624,90.1943 437.668,1445.72 439.712,89.3176 441.755,89.3176 443.799,89.369 445.843,89.5613 447.887,1445.72 449.931,90.2969 451.975,89.8194 454.018,89.515 456.062,89.6066 458.106,90.4597 460.15,1445.72 462.194,89.6066 464.238,89.9764 466.282,89.9381 468.325,89.6942 470.369,89.2647 472.413,89.1538 474.457,89.0953 476.501,89.0953 478.545,89.0346 480.589,89.0346 482.632,88.9712 484.676,88.9712 486.72,88.9712 488.764,88.905 490.808,88.905 492.852,88.905 494.895,88.905 496.939,88.8353 498.983,88.8353 501.027,88.8353 503.071,88.8353 505.115,88.8353 507.159,88.7616 509.202,88.7616 511.246,88.7616 513.29,88.6831 515.334,88.7616 517.378,88.7616 519.422,88.7616 521.466,88.7616 523.509,88.8353 525.553,88.8353 527.597,88.8353 529.641,88.8353 531.685,88.8353 533.729,88.8353 535.772,88.905 537.816,88.905 539.86,88.905 541.904,88.905 543.948,88.905 545.992,88.905 548.036,88.905 550.079,88.9712 552.123,88.9712 554.167,88.9712 556.211,88.9712 558.255,88.9712 560.299,88.9712 562.343,89.0346 564.386,89.0346 566.43,89.0346 568.474,89.0346 570.518,89.0953 572.562,89.0953 574.606,89.0953 576.65,89.0953 578.693,89.1538 580.737,89.1538 582.781,89.2102 584.825,89.2102 586.869,89.2647 588.913,89.3176 590.956,89.4189 593,1445.72 595.044,89.6509 597.088,89.4675 599.132,90.1237 601.176,1445.72 603.22,89.6509 605.263,89.515 607.307,89.8194 609.351,90.2631 611.395,1445.72 613.439,89.7368 615.483,90.0877 617.527,89.6066 619.57,91.4122 621.614,90.7894 623.658,89.8597 625.702,1445.72 627.746,90.5224 629.79,89.2102 631.833,89.8992 633.877,89.7368 635.921,89.4189 637.965,1445.72 640.009,90.4597 642.053,89.515 644.097,1445.72 646.14,1445.72 648.184,1445.72 650.228,89.1538 652.272,89.2647 654.316,90.0877 656.36,89.515 658.404,1445.72 660.447,1445.72 662.491,90.4279 664.535,1445.72 666.579,89.3176 668.623,90.2969 670.667,89.8597 672.711,89.6066 674.754,1445.72 676.798,1445.72 678.842,1445.72 680.886,1445.72 682.93,89.369 684.974,89.0346 687.017,89.1538 689.061,89.2647 691.105,89.6066 693.149,90.5224 695.193,1445.72 697.237,89.9764 699.281,90.1237 701.324,89.6509 703.368,1445.72 705.412,89.6066 707.456,89.7368 709.5,89.6509 711.544,89.2102 713.588,90.5224 715.631,90.1943 717.675,89.8194 719.719,90.3302 721.763,89.8597 723.807,90.3957 725.851,1445.72 727.894,1445.72 729.938,1445.72 731.982,90.732 734.026,1445.72 736.07,1445.72 738.114,1445.72 740.158,89.1538 742.201,88.9712 744.245,89.0346 746.289,89.0953 748.333,89.2102 750.377,89.3176 752.421,90.614 754.465,89.369 756.508,91.4831 758.552,89.4189 760.596,90.3302 762.64,90.0877 764.684,1445.72 766.728,89.4675 768.771,1445.72 770.815,89.2647 772.859,89.8597 774.903,1445.72 776.947,1445.72 778.991,90.5224 781.035,1445.72 783.078,89.3176 785.122,89.2647 787.166,89.2647 789.21,89.8597 791.254,1445.72 793.298,1445.72 795.342,89.9764 797.385,1445.72 799.429,89.4189 801.473,1445.72 803.517,89.515 805.561,89.9764 807.605,1445.72 809.649,1445.72 811.692,1445.72 813.736,1445.72 815.78,1445.72 817.824,1445.72 819.868,89.4675 821.912,1445.72 823.955,89.515 825.999,90.1237 828.043,90.1237 830.087,89.4189 832.131,89.2102 834.175,89.0346 836.219,88.9712 838.262,88.905 840.306,88.9712 842.35,89.0346 844.394,89.0346 846.438,89.0953 848.482,89.1538 850.526,89.2647 852.569,89.4675 854.613,1445.72 856.657,90.0511 858.701,90.2631 860.745,89.6509 862.789,89.8597 864.832,89.2102 866.876,90.4912 868.92,89.5613 870.964,89.9381 873.008,89.369 875.052,89.369 877.096,90.3957 879.139,90.4279 881.183,90.4279 883.227,89.6509 885.271,89.2102 887.315,89.3176 889.359,90.5532 891.403,90.6439 893.446,1445.72 895.49,90.0511 897.534,90.5532 899.578,1445.72 901.622,90.5837 903.666,1445.72 905.71,1445.72 907.753,89.4675 909.797,89.369 911.841,88.9712 913.885,89.2102 915.929,89.4675 917.973,89.8194 920.016,89.369 922.06,1445.72 924.104,89.8992 926.148,1445.72 928.192,90.5837 930.236,89.5613 932.28,89.6066 934.323,1445.72 936.367,89.2102 938.411,1445.72 940.455,90.5224 942.499,1445.72 944.543,90.2969 946.587,89.369 948.63,89.4675 950.674,1445.72 952.718,89.6509 954.762,89.6509 956.806,1445.72 958.85,1445.72 960.893,1445.72 962.937,1445.72 964.981,1445.72 967.025,1445.72 969.069,1445.72 971.113,1445.72 973.157,1445.72 975.2,1445.72 977.244,1445.72 979.288,1445.72 981.332,1445.72 983.376,1445.72 985.42,1445.72 987.464,1445.72 989.507,1445.72 991.551,1445.72 993.595,1445.72 995.639,1445.72 997.683,1445.72 999.727,1445.72 1001.77,1445.72 1003.81,1445.72 1005.86,1445.72 1007.9,90.014 1009.95,89.4675 1011.99,90.229 1014.03,89.4189 1016.08,89.8597 1018.12,1445.72 1020.17,89.2102 1022.21,1445.72 1024.25,90.5532 1026.3,89.6942 1028.34,1445.72 1030.38,1445.72 1032.43,89.0346 1034.47,89.2102 1036.52,1445.72 1038.56,90.2631 1040.6,90.0511 1042.65,89.2647 1044.69,1445.72 1046.74,90.2631 1048.78,89.1538 1050.82,90.1237 1052.87,89.4675 1054.91,89.8194 1056.95,1445.72 1059,1445.72 1061.04,89.2647 1063.09,89.0953 1065.13,89.0346 1067.17,88.9712 1069.22,88.905 1071.26,88.905 1073.31,88.8353 1075.35,88.8353 1077.39,88.8353 1079.44,88.7616 1081.48,88.7616 1083.52,88.7616 1085.57,88.6831 1087.61,88.6831 1089.66,88.5988 1091.7,88.6831 1093.74,88.6831 1095.79,88.7616 1097.83,88.7616 1099.88,88.7616 1101.92,88.7616 1103.96,88.8353 1106.01,88.8353 1108.05,88.8353 1110.09,88.8353 1112.14,88.8353 1114.18,88.905 1116.23,88.905 1118.27,88.905 1120.31,88.905 1122.36,88.9712 1124.4,88.9712 1126.45,88.9712 1128.49,89.0346 1130.53,89.0346 1132.58,89.0953 1134.62,89.0953 1136.66,89.1538 1138.71,89.2102 1140.75,89.3176 1142.8,1445.72 1144.84,1445.72 1146.88,89.7368 1148.93,89.3176 1150.97,1445.72 1153.02,89.8194 1155.06,89.515 1157.1,1445.72 1159.15,89.7368 1161.19,1445.72 1163.23,90.5532 1165.28,1445.72 1167.32,89.2647 1169.37,91.6213 1171.41,90.1943 1173.45,1445.72 1175.5,89.515 1177.54,1445.72 1179.59,89.369 1181.63,89.2102 1183.67,90.7608 1185.72,89.515 1187.76,1445.72 1189.8,1445.72 1191.85,89.9381 1193.89,89.515 1195.94,89.6509 1197.98,1445.72 1200.02,89.3176 1202.07,89.2102 1204.11,89.0346 1206.16,89.2647 1208.2,1445.72 1210.24,90.1237 1212.29,1445.72 1214.33,89.8597 1216.37,89.6509 1218.42,1445.72 1220.46,89.0953 1222.51,90.0877 1224.55,89.4675 1226.59,89.8992 1228.64,89.9381 1230.68,1445.72 1232.73,1445.72 1234.77,90.4279 1236.81,89.7785 1238.86,89.2102 1240.9,88.9712 1242.94,89.0346 1244.99,89.1538 1247.03,89.515 1249.08,89.6066 1251.12,90.2969 1253.16,89.8597 1255.21,89.8597 1257.25,89.6942 1259.3,1445.72 1261.34,89.7368 1263.38,89.7368 1265.43,89.6066 1267.47,1445.72 1269.51,89.0953 1271.56,1445.72 1273.6,89.4675 1275.65,89.8597 1277.69,90.014 1279.73,1445.72 1281.78,1445.72 1283.82,1445.72 1285.87,1445.72 1287.91,1445.72 1289.95,1445.72 1292,1445.72 1294.04,1445.72 1296.09,90.0511 1298.13,89.2647 1300.17,89.1538 1302.22,88.9712 1304.26,88.7616 1306.3,88.905 1308.35,88.9712 1310.39,89.0953 1312.44,89.2102 1314.48,89.5613 1316.52,90.229 1318.57,89.7368 1320.61,91.9056 1322.66,90.9827 1324.7,89.8194 1326.74,89.1538 1328.79,89.9381 1330.83,90.5837 1332.87,1445.72 1334.92,89.3176 1336.96,90.7894 1339.01,1445.72 1341.05,89.6942 1343.09,89.369 1345.14,89.3176 1347.18,1445.72 1349.23,1445.72 1351.27,89.3176 1353.31,89.0346 1355.36,89.4189 1357.4,89.6509 1359.44,89.9381 1361.49,1445.72 1363.53,91.3399 1365.58,90.1593 1367.62,89.7785 1369.66,89.3176 1371.71,89.369 1373.75,89.5613 1375.8,89.3176 1377.84,1445.72 1379.88,90.229 1381.93,1445.72 1383.97,1445.72 1386.01,1445.72 1388.06,1445.72 1390.1,1445.72 1392.15,1445.72 1394.19,1445.72 1396.23,1445.72 1398.28,1445.72 1400.32,1445.72 1402.37,1445.72 1404.41,1445.72 1406.45,1445.72 1408.5,1445.72 1410.54,1445.72 1412.58,1445.72 1414.63,1445.72 1416.67,1445.72 1418.72,89.9381 1420.76,90.732 1422.8,89.4189 1424.85,90.1593 1426.89,89.3176 1428.94,90.0511 1430.98,90.0511 1433.02,89.7368 1435.07,89.5613 1437.11,89.7785 1439.15,88.8353 1441.2,89.0953 1443.24,1445.72 1445.29,89.0953 1447.33,90.5837 1449.37,90.1593 1451.42,89.0953 1453.46,88.9712 1455.51,88.905 1457.55,88.8353 1459.59,88.7616 1461.64,88.7616 1463.68,88.6831 1465.72,88.6831 1467.77,88.5988 1469.81,88.5072 1471.86,88.5988 1473.9,88.6831 1475.94,88.6831 1477.99,88.6831 1480.03,88.7616 1482.08,88.7616 1484.12,88.7616 1486.16,88.8353 1488.21,88.8353 1490.25,88.8353 1492.29,88.905 1494.34,88.905 1496.38,88.9712 1498.43,89.0346 1500.47,89.0953 1502.51,89.2102 1504.56,89.7368 1506.6,90.0877 1508.65,89.2102 1510.69,89.8194 1512.73,90.9827 1514.78,89.2102 1516.82,89.7368 1518.86,1445.72 1520.91,89.3176 1522.95,89.3176 1525,90.2631 1527.04,1445.72 1529.08,89.0953 1531.13,90.9012 1533.17,89.369 1535.22,89.5613 1537.26,1445.72 1539.3,89.8992 1541.35,90.1593 1543.39,89.3176 1545.43,89.0346 1547.48,89.8597 1549.52,1445.72 1551.57,89.515 1553.61,1445.72 1555.65,89.0346 1557.7,1445.72 1559.74,89.5613 1561.79,1445.72 1563.83,1445.72 1565.87,91.2663 1567.92,89.0953 1569.96,88.905 1572,89.0953 1574.05,89.4675 1576.09,1445.72 1578.14,89.2102 1580.18,1445.72 1582.22,1445.72 1584.27,89.6942 1586.31,1445.72 1588.36,89.0953 1590.4,90.2969 1592.44,90.1943 1594.49,89.6509 1596.53,90.0877 1598.57,1445.72 1600.62,1445.72 1602.66,1445.72 1604.71,89.0953 1606.75,89.6509 1608.79,88.9712 1610.84,88.6831 1612.88,88.905 1614.93,89.0346 1616.97,89.369 1619.01,90.0511 1621.06,90.1943 1623.1,89.9381 1625.15,90.0511 1627.19,90.229 1629.23,1445.72 1631.28,89.0346 1633.32,90.9012 1635.36,91.2663 1637.41,90.3631 1639.45,1445.72 1641.5,89.8597 1643.54,89.0346 1645.58,1445.72 1647.63,1445.72 1649.67,89.4675 1651.72,1445.72 1653.76,89.1538 1655.8,90.1943 1657.85,89.2102 1659.89,89.3176 1661.93,1445.72 1663.98,1445.72 1666.02,1445.72 1668.07,1445.72 1670.11,1445.72 1672.15,1445.72 1674.2,1445.72 1676.24,1445.72 1678.29,1445.72 1680.33,1445.72 1682.37,1445.72 1684.42,1445.72 1686.46,89.6509 1688.5,1445.72 1690.55,1445.72 1692.59,90.2631 1694.64,89.4189 1696.68,1445.72 1698.72,89.0346 1700.77,90.1237 1702.81,1445.72 1704.86,1445.72 1706.9,1445.72 1708.94,88.9712 1710.99,88.8353 1713.03,88.6831 1715.07,88.6831 1717.12,88.5988 1719.16,88.5072 1721.21,88.5072 1723.25,88.5988 1725.29,88.5988 1727.34,88.6831 1729.38,88.6831 1731.43,88.7616 1733.47,88.7616 1735.51,88.8353 1737.56,88.905 1739.6,88.9712 1741.64,89.0953 1743.69,89.9764 1745.73,89.4675 1747.78,89.2102 1749.82,91.3156 1751.86,89.3176 1753.91,88.9712 1755.95,1445.72 1758,89.8597 1760.04,88.7616 1762.08,90.7029 1764.13,1445.72 1766.17,92.1123 1768.21,1445.72 1770.26,88.8353 1772.3,1445.72 1774.35,90.3302 1776.39,90.0877 1778.43,1445.72 1780.48,89.4189 1782.52,1445.72 1784.57,1445.72 1786.61,88.8353 1788.65,89.0346 1790.7,90.0511 1792.74,89.369 1794.78,89.7368 1796.83,1445.72 1798.87,1445.72 1800.92,89.8992 1802.96,1445.72 1805,89.6066 1807.05,1445.72 1809.09,90.4597 1811.14,1445.72 1813.18,89.0346 1815.22,88.6831 1817.27,88.905 1819.31,89.6066 1821.35,90.6439 1823.4,1445.72 1825.44,1445.72 1827.49,89.515 1829.53,89.1538 1831.57,89.8597 1833.62,89.6509 1835.66,1445.72 1837.71,89.0953 1839.75,89.7785 1841.79,1445.72 1843.84,89.7785 1845.88,90.0511 1847.92,89.515 1849.97,90.3957 1852.01,1445.72 1854.06,1445.72 1856.1,1445.72 1858.14,1445.72 1860.19,1445.72 1862.23,1445.72 1864.28,1445.72 1866.32,1445.72 1868.36,89.4675 1870.41,1445.72 1872.45,89.4189 1874.49,1445.72 1876.54,89.7785 1878.58,88.9712 1880.63,89.9764 1882.67,88.9712 1884.71,88.7616 1886.76,88.5988 1888.8,88.5072 1890.85,88.4058 1892.89,88.4058 1894.93,88.5072 1896.98,88.5988 1899.02,88.6831 1901.06,88.6831 1903.11,88.7616 1905.15,88.905 1907.2,89.0953 1909.24,90.1593 1911.28,1445.72 1913.33,89.0346 1915.37,1445.72 1917.42,89.6509 1919.46,1445.72 1921.5,89.5613 1923.55,89.7368 1925.59,89.3176 1927.63,89.4675 1929.68,90.3631 1931.72,89.369 1933.77,1445.72 1935.81,90.229 1937.85,1445.72 1939.9,89.9381 1941.94,88.8353 1943.99,1445.72 1946.03,89.0346 1948.07,89.1538 1950.12,90.1943 1952.16,90.2969 1954.2,89.7785 1956.25,89.8194 1958.29,1445.72 1960.34,1445.72 1962.38,89.0346 1964.42,88.6831 1966.47,88.905 1968.51,90.2969 1970.56,89.0346 1972.6,89.1538 1974.64,90.8736 1976.69,1445.72 1978.73,89.0346 1980.78,1445.72 1982.82,88.8353 1984.86,1445.72 1986.91,89.6509 1988.95,89.7785 1990.99,89.6942 1993.04,1445.72 1995.08,1445.72 1997.13,1445.72 1999.17,1445.72 2001.21,1445.72 2003.26,1445.72 2005.3,1445.72 2007.35,1445.72 2009.39,90.3302 2011.43,1445.72 2013.48,89.8992 2015.52,89.4675 2017.56,1445.72 2019.61,1445.72 2021.65,1445.72 2023.7,1445.72 2025.74,90.3302 2027.78,88.6831 2029.83,88.5988 2031.87,88.5072 2033.92,88.4058 2035.96,87.9763 2038,88.4058 2040.05,88.4058 2042.09,88.5072 2044.13,88.5072 2046.18,88.5988 2048.22,88.6831 2050.27,88.7616 2052.31,88.8353 2054.35,89.0346 2056.4,89.3176 2058.44,1445.72 2060.49,1445.72 2062.53,89.8194 2064.57,1445.72 2066.62,1445.72 2068.66,1445.72 2070.7,1445.72 2072.75,89.6066 2074.79,90.0511 2076.84,90.1237 2078.88,89.8194 2080.92,89.3176 2082.97,88.7616 2085.01,89.7785 2087.06,90.7029 2089.1,1445.72 2091.14,89.369 2093.19,89.1538 2095.23,89.0953 2097.27,1445.72 2099.32,89.8992 2101.36,89.5613 2103.41,88.5988 2105.45,88.905 2107.49,1445.72 2109.54,89.369 2111.58,1445.72 2113.63,1445.72 2115.67,89.6509 2117.71,91.3399 2119.76,1445.72 2121.8,89.0346 2123.84,89.2647 2125.89,89.3176 2127.93,89.3176 2129.98,90.0511 2132.02,1445.72 2134.06,1445.72 2136.11,1445.72 2138.15,90.4279 2140.2,90.7029 2142.24,1445.72 2144.28,88.905 2146.33,88.5988 2148.37,88.5072 2150.41,88.6831 2152.46,88.7616 2154.5,88.905 2156.55,1445.72 2158.59,1445.72 2160.63,1445.72 2162.68,1445.72 2164.72,90.0511 2166.77,89.6066 2168.81,89.0953 2170.85,89.6509 2172.9,1445.72 2174.94,1445.72 2176.98,1445.72 2179.03,88.8353 2181.07,90.7608 2183.12,89.3176 2185.16,90.1943 2187.2,89.0346 2189.25,89.5613 2191.29,89.2647 2193.34,1445.72 2195.38,1445.72 2197.42,89.4189 2199.47,88.7616 2201.51,88.8353 2203.55,89.1538 2205.6,91.2663 2207.64,89.2102 2209.69,1445.72 2211.73,1445.72 2213.77,89.9764 2215.82,89.8194 2217.86,1445.72 2219.91,89.6942 2221.95,1445.72 2223.99,88.905 2226.04,89.4189 2228.08,90.229 2230.12,90.8458 2232.17,89.2647 2234.21,1445.72 2236.26,89.2102 2238.3,1445.72 2240.34,91.1402 2242.39,89.6066 2244.43,1445.72 2246.48,89.515 2248.52,1445.72 2250.56,1445.72 2252.61,1445.72 2254.65,1445.72 2256.69,1445.72 2258.74,1445.72 2260.78,1445.72 2262.83,1445.72 2264.87,1445.72 2266.91,1445.72 2268.96,1445.72 2271,1445.72 2273.05,1445.72 2275.09,1445.72 2277.13,1445.72 2279.18,1445.72 2281.22,1445.72 2283.26,1445.72 2285.31,1445.72 2287.35,1445.72 2289.4,1445.72 2291.44,1445.72 "/>
<path clip-path="url(#clip060)" d="M258.49 1438.47 L527.569 1438.47 L527.569 1334.79 L258.49 1334.79  Z" fill="#ffffff" fill-rule="evenodd" fill-opacity="1"/>
<polyline clip-path="url(#clip060)" style="stroke:#000000; stroke-linecap:round; stroke-linejoin:round; stroke-width:4; stroke-opacity:1; fill:none" points="258.49,1438.47 527.569,1438.47 527.569,1334.79 258.49,1334.79 258.49,1438.47 "/>
<polyline clip-path="url(#clip060)" style="stroke:#009af9; stroke-linecap:round; stroke-linejoin:round; stroke-width:4; stroke-opacity:1; fill:none" points="282.562,1386.63 426.994,1386.63 "/>
<path clip-path="url(#clip060)" d="M464.909 1406.32 Q463.103 1410.95 461.39 1412.36 Q459.677 1413.78 456.807 1413.78 L453.404 1413.78 L453.404 1410.21 L455.904 1410.21 Q457.663 1410.21 458.636 1409.38 Q459.608 1408.54 460.788 1405.44 L461.552 1403.5 L451.066 1377.99 L455.58 1377.99 L463.682 1398.27 L471.784 1377.99 L476.298 1377.99 L464.909 1406.32 Z" fill="#000000" fill-rule="nonzero" fill-opacity="1" /><path clip-path="url(#clip060)" d="M483.589 1399.98 L491.228 1399.98 L491.228 1373.61 L482.918 1375.28 L482.918 1371.02 L491.182 1369.35 L495.858 1369.35 L495.858 1399.98 L503.497 1399.98 L503.497 1403.91 L483.589 1403.91 L483.589 1399.98 Z" fill="#000000" fill-rule="nonzero" fill-opacity="1" /></svg>
