<?xml version="1.0" encoding="utf-8"?>
<svg xmlns="http://www.w3.org/2000/svg" xmlns:xlink="http://www.w3.org/1999/xlink" width="600" height="400" viewBox="0 0 2400 1600">
<defs>
  <clipPath id="clip910">
    <rect x="0" y="0" width="2400" height="1600"/>
  </clipPath>
</defs>
<path clip-path="url(#clip910)" d="M0 1600 L2400 1600 L2400 0 L0 0  Z" fill="#ffffff" fill-rule="evenodd" fill-opacity="1"/>
<defs>
  <clipPath id="clip911">
    <rect x="480" y="0" width="1681" height="1600"/>
  </clipPath>
</defs>
<path clip-path="url(#clip910)" d="M186.274 1486.45 L2352.76 1486.45 L2352.76 47.2441 L186.274 47.2441  Z" fill="#ffffff" fill-rule="evenodd" fill-opacity="1"/>
<defs>
  <clipPath id="clip912">
    <rect x="186" y="47" width="2167" height="1440"/>
  </clipPath>
</defs>
<polyline clip-path="url(#clip912)" style="stroke:#000000; stroke-linecap:round; stroke-linejoin:round; stroke-width:2; stroke-opacity:0.1; fill:none" points="451.975,1486.45 451.975,47.2441 "/>
<polyline clip-path="url(#clip912)" style="stroke:#000000; stroke-linecap:round; stroke-linejoin:round; stroke-width:2; stroke-opacity:0.1; fill:none" points="860.745,1486.45 860.745,47.2441 "/>
<polyline clip-path="url(#clip912)" style="stroke:#000000; stroke-linecap:round; stroke-linejoin:round; stroke-width:2; stroke-opacity:0.1; fill:none" points="1269.51,1486.45 1269.51,47.2441 "/>
<polyline clip-path="url(#clip912)" style="stroke:#000000; stroke-linecap:round; stroke-linejoin:round; stroke-width:2; stroke-opacity:0.1; fill:none" points="1678.29,1486.45 1678.29,47.2441 "/>
<polyline clip-path="url(#clip912)" style="stroke:#000000; stroke-linecap:round; stroke-linejoin:round; stroke-width:2; stroke-opacity:0.1; fill:none" points="2087.06,1486.45 2087.06,47.2441 "/>
<polyline clip-path="url(#clip912)" style="stroke:#000000; stroke-linecap:round; stroke-linejoin:round; stroke-width:2; stroke-opacity:0.1; fill:none" points="186.274,1445.72 2352.76,1445.72 "/>
<polyline clip-path="url(#clip912)" style="stroke:#000000; stroke-linecap:round; stroke-linejoin:round; stroke-width:2; stroke-opacity:0.1; fill:none" points="186.274,1106.28 2352.76,1106.28 "/>
<polyline clip-path="url(#clip912)" style="stroke:#000000; stroke-linecap:round; stroke-linejoin:round; stroke-width:2; stroke-opacity:0.1; fill:none" points="186.274,766.846 2352.76,766.846 "/>
<polyline clip-path="url(#clip912)" style="stroke:#000000; stroke-linecap:round; stroke-linejoin:round; stroke-width:2; stroke-opacity:0.1; fill:none" points="186.274,427.411 2352.76,427.411 "/>
<polyline clip-path="url(#clip912)" style="stroke:#000000; stroke-linecap:round; stroke-linejoin:round; stroke-width:2; stroke-opacity:0.1; fill:none" points="186.274,87.9763 2352.76,87.9763 "/>
<polyline clip-path="url(#clip910)" style="stroke:#000000; stroke-linecap:round; stroke-linejoin:round; stroke-width:4; stroke-opacity:1; fill:none" points="186.274,1486.45 2352.76,1486.45 "/>
<polyline clip-path="url(#clip910)" style="stroke:#000000; stroke-linecap:round; stroke-linejoin:round; stroke-width:4; stroke-opacity:1; fill:none" points="451.975,1486.45 451.975,1467.55 "/>
<polyline clip-path="url(#clip910)" style="stroke:#000000; stroke-linecap:round; stroke-linejoin:round; stroke-width:4; stroke-opacity:1; fill:none" points="860.745,1486.45 860.745,1467.55 "/>
<polyline clip-path="url(#clip910)" style="stroke:#000000; stroke-linecap:round; stroke-linejoin:round; stroke-width:4; stroke-opacity:1; fill:none" points="1269.51,1486.45 1269.51,1467.55 "/>
<polyline clip-path="url(#clip910)" style="stroke:#000000; stroke-linecap:round; stroke-linejoin:round; stroke-width:4; stroke-opacity:1; fill:none" points="1678.29,1486.45 1678.29,1467.55 "/>
<polyline clip-path="url(#clip910)" style="stroke:#000000; stroke-linecap:round; stroke-linejoin:round; stroke-width:4; stroke-opacity:1; fill:none" points="2087.06,1486.45 2087.06,1467.55 "/>
<path clip-path="url(#clip910)" d="M420.875 1532.02 L450.551 1532.02 L450.551 1535.95 L420.875 1535.95 L420.875 1532.02 Z" fill="#000000" fill-rule="nonzero" fill-opacity="1" /><path clip-path="url(#clip910)" d="M473.491 1518.36 L461.685 1536.81 L473.491 1536.81 L473.491 1518.36 M472.264 1514.29 L478.143 1514.29 L478.143 1536.81 L483.074 1536.81 L483.074 1540.7 L478.143 1540.7 L478.143 1548.85 L473.491 1548.85 L473.491 1540.7 L457.889 1540.7 L457.889 1536.19 L472.264 1514.29 Z" fill="#000000" fill-rule="nonzero" fill-opacity="1" /><path clip-path="url(#clip910)" d="M830.687 1532.02 L860.363 1532.02 L860.363 1535.95 L830.687 1535.95 L830.687 1532.02 Z" fill="#000000" fill-rule="nonzero" fill-opacity="1" /><path clip-path="url(#clip910)" d="M874.483 1544.91 L890.802 1544.91 L890.802 1548.85 L868.858 1548.85 L868.858 1544.91 Q871.52 1542.16 876.103 1537.53 Q880.71 1532.88 881.891 1531.53 Q884.136 1529.01 885.015 1527.27 Q885.918 1525.51 885.918 1523.82 Q885.918 1521.07 883.974 1519.33 Q882.053 1517.6 878.951 1517.6 Q876.752 1517.6 874.298 1518.36 Q871.867 1519.13 869.09 1520.68 L869.09 1515.95 Q871.914 1514.82 874.367 1514.24 Q876.821 1513.66 878.858 1513.66 Q884.228 1513.66 887.423 1516.35 Q890.617 1519.03 890.617 1523.52 Q890.617 1525.65 889.807 1527.57 Q889.02 1529.47 886.914 1532.07 Q886.335 1532.74 883.233 1535.95 Q880.131 1539.15 874.483 1544.91 Z" fill="#000000" fill-rule="nonzero" fill-opacity="1" /><path clip-path="url(#clip910)" d="M1269.51 1517.37 Q1265.9 1517.37 1264.08 1520.93 Q1262.27 1524.47 1262.27 1531.6 Q1262.27 1538.71 1264.08 1542.27 Q1265.9 1545.82 1269.51 1545.82 Q1273.15 1545.82 1274.95 1542.27 Q1276.78 1538.71 1276.78 1531.6 Q1276.78 1524.47 1274.95 1520.93 Q1273.15 1517.37 1269.51 1517.37 M1269.51 1513.66 Q1275.33 1513.66 1278.38 1518.27 Q1281.46 1522.85 1281.46 1531.6 Q1281.46 1540.33 1278.38 1544.94 Q1275.33 1549.52 1269.51 1549.52 Q1263.7 1549.52 1260.63 1544.94 Q1257.57 1540.33 1257.57 1531.6 Q1257.57 1522.85 1260.63 1518.27 Q1263.7 1513.66 1269.51 1513.66 Z" fill="#000000" fill-rule="nonzero" fill-opacity="1" /><path clip-path="url(#clip910)" d="M1672.94 1544.91 L1689.26 1544.91 L1689.26 1548.85 L1667.31 1548.85 L1667.31 1544.91 Q1669.97 1542.16 1674.56 1537.53 Q1679.16 1532.88 1680.35 1531.53 Q1682.59 1529.01 1683.47 1527.27 Q1684.37 1525.51 1684.37 1523.82 Q1684.37 1521.07 1682.43 1519.33 Q1680.51 1517.6 1677.41 1517.6 Q1675.21 1517.6 1672.75 1518.36 Q1670.32 1519.13 1667.54 1520.68 L1667.54 1515.95 Q1670.37 1514.82 1672.82 1514.24 Q1675.28 1513.66 1677.31 1513.66 Q1682.68 1513.66 1685.88 1516.35 Q1689.07 1519.03 1689.07 1523.52 Q1689.07 1525.65 1688.26 1527.57 Q1687.47 1529.47 1685.37 1532.07 Q1684.79 1532.74 1681.69 1535.95 Q1678.59 1539.15 1672.94 1544.91 Z" fill="#000000" fill-rule="nonzero" fill-opacity="1" /><path clip-path="url(#clip910)" d="M2090.06 1518.36 L2078.26 1536.81 L2090.06 1536.81 L2090.06 1518.36 M2088.84 1514.29 L2094.72 1514.29 L2094.72 1536.81 L2099.65 1536.81 L2099.65 1540.7 L2094.72 1540.7 L2094.72 1548.85 L2090.06 1548.85 L2090.06 1540.7 L2074.46 1540.7 L2074.46 1536.19 L2088.84 1514.29 Z" fill="#000000" fill-rule="nonzero" fill-opacity="1" /><polyline clip-path="url(#clip910)" style="stroke:#000000; stroke-linecap:round; stroke-linejoin:round; stroke-width:4; stroke-opacity:1; fill:none" points="186.274,1486.45 186.274,47.2441 "/>
<polyline clip-path="url(#clip910)" style="stroke:#000000; stroke-linecap:round; stroke-linejoin:round; stroke-width:4; stroke-opacity:1; fill:none" points="186.274,1445.72 205.172,1445.72 "/>
<polyline clip-path="url(#clip910)" style="stroke:#000000; stroke-linecap:round; stroke-linejoin:round; stroke-width:4; stroke-opacity:1; fill:none" points="186.274,1106.28 205.172,1106.28 "/>
<polyline clip-path="url(#clip910)" style="stroke:#000000; stroke-linecap:round; stroke-linejoin:round; stroke-width:4; stroke-opacity:1; fill:none" points="186.274,766.846 205.172,766.846 "/>
<polyline clip-path="url(#clip910)" style="stroke:#000000; stroke-linecap:round; stroke-linejoin:round; stroke-width:4; stroke-opacity:1; fill:none" points="186.274,427.411 205.172,427.411 "/>
<polyline clip-path="url(#clip910)" style="stroke:#000000; stroke-linecap:round; stroke-linejoin:round; stroke-width:4; stroke-opacity:1; fill:none" points="186.274,87.9763 205.172,87.9763 "/>
<path clip-path="url(#clip910)" d="M62.9365 1431.51 Q59.3254 1431.51 57.4967 1435.08 Q55.6912 1438.62 55.6912 1445.75 Q55.6912 1452.86 57.4967 1456.42 Q59.3254 1459.96 62.9365 1459.96 Q66.5707 1459.96 68.3763 1456.42 Q70.205 1452.86 70.205 1445.75 Q70.205 1438.62 68.3763 1435.08 Q66.5707 1431.51 62.9365 1431.51 M62.9365 1427.81 Q68.7467 1427.81 71.8022 1432.42 Q74.8809 1437 74.8809 1445.75 Q74.8809 1454.48 71.8022 1459.08 Q68.7467 1463.67 62.9365 1463.67 Q57.1264 1463.67 54.0477 1459.08 Q50.9921 1454.48 50.9921 1445.75 Q50.9921 1437 54.0477 1432.42 Q57.1264 1427.81 62.9365 1427.81 Z" fill="#000000" fill-rule="nonzero" fill-opacity="1" /><path clip-path="url(#clip910)" d="M83.0984 1457.12 L87.9827 1457.12 L87.9827 1463 L83.0984 1463 L83.0984 1457.12 Z" fill="#000000" fill-rule="nonzero" fill-opacity="1" /><path clip-path="url(#clip910)" d="M108.168 1431.51 Q104.557 1431.51 102.728 1435.08 Q100.922 1438.62 100.922 1445.75 Q100.922 1452.86 102.728 1456.42 Q104.557 1459.96 108.168 1459.96 Q111.802 1459.96 113.608 1456.42 Q115.436 1452.86 115.436 1445.75 Q115.436 1438.62 113.608 1435.08 Q111.802 1431.51 108.168 1431.51 M108.168 1427.81 Q113.978 1427.81 117.033 1432.42 Q120.112 1437 120.112 1445.75 Q120.112 1454.48 117.033 1459.08 Q113.978 1463.67 108.168 1463.67 Q102.358 1463.67 99.2789 1459.08 Q96.2234 1454.48 96.2234 1445.75 Q96.2234 1437 99.2789 1432.42 Q102.358 1427.81 108.168 1427.81 Z" fill="#000000" fill-rule="nonzero" fill-opacity="1" /><path clip-path="url(#clip910)" d="M138.33 1431.51 Q134.719 1431.51 132.89 1435.08 Q131.084 1438.62 131.084 1445.75 Q131.084 1452.86 132.89 1456.42 Q134.719 1459.96 138.33 1459.96 Q141.964 1459.96 143.769 1456.42 Q145.598 1452.86 145.598 1445.75 Q145.598 1438.62 143.769 1435.08 Q141.964 1431.51 138.33 1431.51 M138.33 1427.81 Q144.14 1427.81 147.195 1432.42 Q150.274 1437 150.274 1445.75 Q150.274 1454.48 147.195 1459.08 Q144.14 1463.67 138.33 1463.67 Q132.519 1463.67 129.441 1459.08 Q126.385 1454.48 126.385 1445.75 Q126.385 1437 129.441 1432.42 Q132.519 1427.81 138.33 1427.81 Z" fill="#000000" fill-rule="nonzero" fill-opacity="1" /><path clip-path="url(#clip910)" d="M63.9319 1092.08 Q60.3208 1092.08 58.4921 1095.64 Q56.6865 1099.19 56.6865 1106.32 Q56.6865 1113.42 58.4921 1116.99 Q60.3208 1120.53 63.9319 1120.53 Q67.5661 1120.53 69.3717 1116.99 Q71.2004 1113.42 71.2004 1106.32 Q71.2004 1099.19 69.3717 1095.64 Q67.5661 1092.08 63.9319 1092.08 M63.9319 1088.38 Q69.742 1088.38 72.7976 1092.98 Q75.8763 1097.57 75.8763 1106.32 Q75.8763 1115.04 72.7976 1119.65 Q69.742 1124.23 63.9319 1124.23 Q58.1217 1124.23 55.043 1119.65 Q51.9875 1115.04 51.9875 1106.32 Q51.9875 1097.57 55.043 1092.98 Q58.1217 1088.38 63.9319 1088.38 Z" fill="#000000" fill-rule="nonzero" fill-opacity="1" /><path clip-path="url(#clip910)" d="M84.0938 1117.68 L88.978 1117.68 L88.978 1123.56 L84.0938 1123.56 L84.0938 1117.68 Z" fill="#000000" fill-rule="nonzero" fill-opacity="1" /><path clip-path="url(#clip910)" d="M103.191 1119.63 L119.51 1119.63 L119.51 1123.56 L97.566 1123.56 L97.566 1119.63 Q100.228 1116.87 104.811 1112.24 Q109.418 1107.59 110.598 1106.25 Q112.844 1103.72 113.723 1101.99 Q114.626 1100.23 114.626 1098.54 Q114.626 1095.78 112.682 1094.05 Q110.76 1092.31 107.658 1092.31 Q105.459 1092.31 103.006 1093.07 Q100.575 1093.84 97.7974 1095.39 L97.7974 1090.67 Q100.621 1089.53 103.075 1088.95 Q105.529 1088.38 107.566 1088.38 Q112.936 1088.38 116.131 1091.06 Q119.325 1093.75 119.325 1098.24 Q119.325 1100.37 118.515 1102.29 Q117.728 1104.19 115.621 1106.78 Q115.043 1107.45 111.941 1110.67 Q108.839 1113.86 103.191 1119.63 Z" fill="#000000" fill-rule="nonzero" fill-opacity="1" /><path clip-path="url(#clip910)" d="M129.371 1089 L147.728 1089 L147.728 1092.94 L133.654 1092.94 L133.654 1101.41 Q134.672 1101.06 135.691 1100.9 Q136.709 1100.71 137.728 1100.71 Q143.515 1100.71 146.894 1103.89 Q150.274 1107.06 150.274 1112.47 Q150.274 1118.05 146.802 1121.15 Q143.33 1124.23 137.01 1124.23 Q134.834 1124.23 132.566 1123.86 Q130.32 1123.49 127.913 1122.75 L127.913 1118.05 Q129.996 1119.19 132.219 1119.74 Q134.441 1120.3 136.918 1120.3 Q140.922 1120.3 143.26 1118.19 Q145.598 1116.08 145.598 1112.47 Q145.598 1108.86 143.26 1106.76 Q140.922 1104.65 136.918 1104.65 Q135.043 1104.65 133.168 1105.07 Q131.316 1105.48 129.371 1106.36 L129.371 1089 Z" fill="#000000" fill-rule="nonzero" fill-opacity="1" /><path clip-path="url(#clip910)" d="M62.9365 752.645 Q59.3254 752.645 57.4967 756.209 Q55.6912 759.751 55.6912 766.881 Q55.6912 773.987 57.4967 777.552 Q59.3254 781.094 62.9365 781.094 Q66.5707 781.094 68.3763 777.552 Q70.205 773.987 70.205 766.881 Q70.205 759.751 68.3763 756.209 Q66.5707 752.645 62.9365 752.645 M62.9365 748.941 Q68.7467 748.941 71.8022 753.547 Q74.8809 758.131 74.8809 766.881 Q74.8809 775.608 71.8022 780.214 Q68.7467 784.797 62.9365 784.797 Q57.1264 784.797 54.0477 780.214 Q50.9921 775.608 50.9921 766.881 Q50.9921 758.131 54.0477 753.547 Q57.1264 748.941 62.9365 748.941 Z" fill="#000000" fill-rule="nonzero" fill-opacity="1" /><path clip-path="url(#clip910)" d="M83.0984 778.246 L87.9827 778.246 L87.9827 784.126 L83.0984 784.126 L83.0984 778.246 Z" fill="#000000" fill-rule="nonzero" fill-opacity="1" /><path clip-path="url(#clip910)" d="M98.2141 749.566 L116.57 749.566 L116.57 753.501 L102.496 753.501 L102.496 761.973 Q103.515 761.626 104.534 761.464 Q105.552 761.279 106.571 761.279 Q112.358 761.279 115.737 764.45 Q119.117 767.621 119.117 773.038 Q119.117 778.617 115.645 781.719 Q112.172 784.797 105.853 784.797 Q103.677 784.797 101.409 784.427 Q99.1632 784.057 96.7558 783.316 L96.7558 778.617 Q98.8391 779.751 101.061 780.307 Q103.284 780.862 105.76 780.862 Q109.765 780.862 112.103 778.756 Q114.441 776.649 114.441 773.038 Q114.441 769.427 112.103 767.321 Q109.765 765.214 105.76 765.214 Q103.885 765.214 102.01 765.631 Q100.159 766.047 98.2141 766.927 L98.2141 749.566 Z" fill="#000000" fill-rule="nonzero" fill-opacity="1" /><path clip-path="url(#clip910)" d="M138.33 752.645 Q134.719 752.645 132.89 756.209 Q131.084 759.751 131.084 766.881 Q131.084 773.987 132.89 777.552 Q134.719 781.094 138.33 781.094 Q141.964 781.094 143.769 777.552 Q145.598 773.987 145.598 766.881 Q145.598 759.751 143.769 756.209 Q141.964 752.645 138.33 752.645 M138.33 748.941 Q144.14 748.941 147.195 753.547 Q150.274 758.131 150.274 766.881 Q150.274 775.608 147.195 780.214 Q144.14 784.797 138.33 784.797 Q132.519 784.797 129.441 780.214 Q126.385 775.608 126.385 766.881 Q126.385 758.131 129.441 753.547 Q132.519 748.941 138.33 748.941 Z" fill="#000000" fill-rule="nonzero" fill-opacity="1" /><path clip-path="url(#clip910)" d="M63.9319 413.21 Q60.3208 413.21 58.4921 416.775 Q56.6865 420.316 56.6865 427.446 Q56.6865 434.552 58.4921 438.117 Q60.3208 441.659 63.9319 441.659 Q67.5661 441.659 69.3717 438.117 Q71.2004 434.552 71.2004 427.446 Q71.2004 420.316 69.3717 416.775 Q67.5661 413.21 63.9319 413.21 M63.9319 409.506 Q69.742 409.506 72.7976 414.113 Q75.8763 418.696 75.8763 427.446 Q75.8763 436.173 72.7976 440.779 Q69.742 445.362 63.9319 445.362 Q58.1217 445.362 55.043 440.779 Q51.9875 436.173 51.9875 427.446 Q51.9875 418.696 55.043 414.113 Q58.1217 409.506 63.9319 409.506 Z" fill="#000000" fill-rule="nonzero" fill-opacity="1" /><path clip-path="url(#clip910)" d="M84.0938 438.812 L88.978 438.812 L88.978 444.691 L84.0938 444.691 L84.0938 438.812 Z" fill="#000000" fill-rule="nonzero" fill-opacity="1" /><path clip-path="url(#clip910)" d="M97.9826 410.131 L120.205 410.131 L120.205 412.122 L107.658 444.691 L102.774 444.691 L114.58 414.066 L97.9826 414.066 L97.9826 410.131 Z" fill="#000000" fill-rule="nonzero" fill-opacity="1" /><path clip-path="url(#clip910)" d="M129.371 410.131 L147.728 410.131 L147.728 414.066 L133.654 414.066 L133.654 422.538 Q134.672 422.191 135.691 422.029 Q136.709 421.844 137.728 421.844 Q143.515 421.844 146.894 425.015 Q150.274 428.187 150.274 433.603 Q150.274 439.182 146.802 442.284 Q143.33 445.362 137.01 445.362 Q134.834 445.362 132.566 444.992 Q130.32 444.622 127.913 443.881 L127.913 439.182 Q129.996 440.316 132.219 440.872 Q134.441 441.427 136.918 441.427 Q140.922 441.427 143.26 439.321 Q145.598 437.214 145.598 433.603 Q145.598 429.992 143.26 427.886 Q140.922 425.779 136.918 425.779 Q135.043 425.779 133.168 426.196 Q131.316 426.613 129.371 427.492 L129.371 410.131 Z" fill="#000000" fill-rule="nonzero" fill-opacity="1" /><path clip-path="url(#clip910)" d="M53.7467 101.321 L61.3856 101.321 L61.3856 74.9555 L53.0754 76.6222 L53.0754 72.3629 L61.3393 70.6963 L66.0152 70.6963 L66.0152 101.321 L73.654 101.321 L73.654 105.256 L53.7467 105.256 L53.7467 101.321 Z" fill="#000000" fill-rule="nonzero" fill-opacity="1" /><path clip-path="url(#clip910)" d="M83.0984 99.3767 L87.9827 99.3767 L87.9827 105.256 L83.0984 105.256 L83.0984 99.3767 Z" fill="#000000" fill-rule="nonzero" fill-opacity="1" /><path clip-path="url(#clip910)" d="M108.168 73.775 Q104.557 73.775 102.728 77.3398 Q100.922 80.8814 100.922 88.011 Q100.922 95.1174 102.728 98.6822 Q104.557 102.224 108.168 102.224 Q111.802 102.224 113.608 98.6822 Q115.436 95.1174 115.436 88.011 Q115.436 80.8814 113.608 77.3398 Q111.802 73.775 108.168 73.775 M108.168 70.0713 Q113.978 70.0713 117.033 74.6777 Q120.112 79.261 120.112 88.011 Q120.112 96.7378 117.033 101.344 Q113.978 105.928 108.168 105.928 Q102.358 105.928 99.2789 101.344 Q96.2234 96.7378 96.2234 88.011 Q96.2234 79.261 99.2789 74.6777 Q102.358 70.0713 108.168 70.0713 Z" fill="#000000" fill-rule="nonzero" fill-opacity="1" /><path clip-path="url(#clip910)" d="M138.33 73.775 Q134.719 73.775 132.89 77.3398 Q131.084 80.8814 131.084 88.011 Q131.084 95.1174 132.89 98.6822 Q134.719 102.224 138.33 102.224 Q141.964 102.224 143.769 98.6822 Q145.598 95.1174 145.598 88.011 Q145.598 80.8814 143.769 77.3398 Q141.964 73.775 138.33 73.775 M138.33 70.0713 Q144.14 70.0713 147.195 74.6777 Q150.274 79.261 150.274 88.011 Q150.274 96.7378 147.195 101.344 Q144.14 105.928 138.33 105.928 Q132.519 105.928 129.441 101.344 Q126.385 96.7378 126.385 88.011 Q126.385 79.261 129.441 74.6777 Q132.519 70.0713 138.33 70.0713 Z" fill="#000000" fill-rule="nonzero" fill-opacity="1" /><polyline clip-path="url(#clip912)" style="stroke:#009af9; stroke-linecap:round; stroke-linejoin:round; stroke-width:4; stroke-opacity:1; fill:none" points="247.59,248.626 249.633,254.265 251.677,259.718 253.721,265.004 255.765,275.128 257.809,352.648 259.853,423.313 261.896,311.076 263.94,293.888 265.984,1445.72 268.028,293.888 270.072,420.553 272.116,265.004 274.16,1445.72 276.203,330.856 278.247,1445.72 280.291,265.004 282.335,1445.72 284.379,400.551 286.423,289.362 288.467,362.898 290.51,1445.72 292.554,248.626 294.598,394.597 296.642,375.996 298.686,306.905 300.73,1445.72 302.774,1445.72 304.817,362.898 306.861,1445.72 308.905,1445.72 310.949,1445.72 312.993,248.626 315.037,259.718 317.08,1445.72 319.124,1445.72 321.168,298.316 323.212,341.986 325.256,1445.72 327.3,338.331 329.344,259.718 331.387,298.316 333.431,1445.72 335.475,1445.72 337.519,1445.72 339.563,1445.72 341.607,284.731 343.651,409.276 345.694,284.731 347.738,242.782 349.782,248.626 351.826,259.718 353.87,372.778 355.914,319.191 357.957,275.128 360.001,323.144 362.045,1445.72 364.089,1445.72 366.133,1445.72 368.177,349.143 370.221,330.856 372.264,1445.72 374.308,242.782 376.352,330.856 378.396,338.331 380.44,1445.72 382.484,279.99 384.528,444.625 386.571,356.108 388.615,1445.72 390.659,1445.72 392.703,1445.72 394.747,372.778 396.791,1445.72 398.834,334.622 400.878,1445.72 402.922,248.626 404.966,236.709 407.01,230.377 409.054,242.782 411.098,248.626 413.141,265.004 415.185,409.276 417.229,375.996 419.273,275.128 421.317,1445.72 423.361,302.654 425.405,1445.72 427.448,334.622 429.492,397.588 431.536,319.191 433.58,1445.72 435.624,270.136 437.668,349.143 439.712,298.316 441.755,293.888 443.799,1445.72 445.843,1445.72 447.887,270.136 449.931,248.626 451.975,259.718 454.018,341.986 456.062,1445.72 458.106,284.731 460.15,311.076 462.194,302.654 464.238,372.778 466.282,284.731 468.325,1445.72 470.369,372.778 472.413,1445.72 474.457,284.731 476.501,442.031 478.545,1445.72 480.589,1445.72 482.632,1445.72 484.676,1445.72 486.72,1445.72 488.764,1445.72 490.808,1445.72 492.852,1445.72 494.895,1445.72 496.939,1445.72 498.983,1445.72 501.027,1445.72 503.071,1445.72 505.115,1445.72 507.159,1445.72 509.202,349.143 511.246,306.905 513.29,1445.72 515.334,1445.72 517.378,1445.72 519.422,265.004 521.466,279.99 523.509,242.782 525.553,1445.72 527.597,366.23 529.641,265.004 531.685,293.888 533.729,315.17 535.772,259.718 537.816,293.888 539.86,1445.72 541.904,248.626 543.948,236.709 545.992,230.377 548.036,230.377 550.079,223.75 552.123,216.783 554.167,216.783 556.211,209.416 558.255,201.573 560.299,209.416 562.343,216.783 564.386,216.783 566.43,216.783 568.474,223.75 570.518,223.75 572.562,230.377 574.606,230.377 576.65,230.377 578.693,236.709 580.737,236.709 582.781,242.782 584.825,248.626 586.869,254.265 588.913,270.136 590.956,298.316 593,323.144 595.044,284.731 597.088,1445.72 599.132,341.986 601.176,372.778 603.22,1445.72 605.263,270.136 607.307,275.128 609.351,1445.72 611.395,1445.72 613.439,248.626 615.483,284.731 617.527,391.576 619.57,265.004 621.614,345.589 623.658,1445.72 625.702,306.905 627.746,248.626 629.79,382.327 631.833,330.856 633.877,254.265 635.921,306.905 637.965,284.731 640.009,315.17 642.053,315.17 644.097,1445.72 646.14,1445.72 648.184,1445.72 650.228,230.377 652.272,254.265 654.316,302.654 656.36,275.128 658.404,279.99 660.447,1445.72 662.491,1445.72 664.535,385.442 666.579,289.362 668.623,319.191 670.667,279.99 672.711,275.128 674.754,1445.72 676.798,1445.72 678.842,1445.72 680.886,279.99 682.93,1445.72 684.974,275.128 687.017,236.709 689.061,230.377 691.105,242.782 693.149,259.718 695.193,327.031 697.237,298.316 699.281,423.313 701.324,327.031 703.368,293.888 705.412,375.996 707.456,248.626 709.5,397.588 711.544,334.622 713.588,391.576 715.631,315.17 717.675,230.377 719.719,302.654 721.763,1445.72 723.807,254.265 725.851,293.888 727.894,265.004 729.938,1445.72 731.982,1445.72 734.026,298.316 736.07,1445.72 738.114,1445.72 740.158,1445.72 742.201,1445.72 744.245,1445.72 746.289,1445.72 748.333,1445.72 750.377,1445.72 752.421,1445.72 754.465,1445.72 756.508,311.076 758.552,275.128 760.596,349.143 762.64,388.525 764.684,265.004 766.728,254.265 768.771,311.076 770.815,1445.72 772.859,1445.72 774.903,315.17 776.947,323.144 778.991,236.709 781.035,223.75 783.078,216.783 785.122,209.416 787.166,201.573 789.21,193.146 791.254,209.416 793.298,209.416 795.342,216.783 797.385,216.783 799.429,223.75 801.473,230.377 803.517,230.377 805.561,236.709 807.605,248.626 809.649,279.99 811.692,306.905 813.736,1445.72 815.78,1445.72 817.824,298.316 819.868,259.718 821.912,1445.72 823.955,1445.72 825.999,311.076 828.043,1445.72 830.087,275.128 832.131,1445.72 834.175,236.709 836.219,1445.72 838.262,341.986 840.306,1445.72 842.35,1445.72 844.394,327.031 846.438,1445.72 848.482,254.265 850.526,242.782 852.569,293.888 854.613,406.394 856.657,1445.72 858.701,369.523 860.745,242.782 862.789,1445.72 864.832,1445.72 866.876,1445.72 868.92,1445.72 870.964,236.709 873.008,248.626 875.052,216.783 877.096,242.782 879.139,1445.72 881.183,523.724 883.227,265.004 885.271,391.576 887.315,248.626 889.359,302.654 891.403,352.648 893.446,265.004 895.49,311.076 897.534,1445.72 899.578,1445.72 901.622,270.136 903.666,479.137 905.71,1445.72 907.753,1445.72 909.797,1445.72 911.841,1445.72 913.885,1445.72 915.929,1445.72 917.973,1445.72 920.016,1445.72 922.06,275.128 924.104,293.888 926.148,306.905 928.192,275.128 930.236,1445.72 932.28,1445.72 934.323,230.377 936.367,216.783 938.411,201.573 940.455,193.146 942.499,201.573 944.543,201.573 946.587,209.416 948.63,216.783 950.674,223.75 952.718,236.709 954.762,306.905 956.806,1445.72 958.85,254.265 960.893,265.004 962.937,359.524 964.981,248.626 967.025,289.362 969.069,1445.72 971.113,236.709 973.157,400.551 975.2,236.709 977.244,306.905 979.288,459.809 981.332,230.377 983.376,1445.72 985.42,372.778 987.464,1445.72 989.507,330.856 991.551,341.986 993.595,1445.72 995.639,298.316 997.683,216.783 999.727,270.136 1001.77,1445.72 1003.81,356.108 1005.86,270.136 1007.9,369.523 1009.95,230.377 1011.99,1445.72 1014.03,1445.72 1016.08,254.265 1018.12,1445.72 1020.17,1445.72 1022.21,1445.72 1024.25,1445.72 1026.3,1445.72 1028.34,1445.72 1030.38,311.076 1032.43,236.709 1034.47,1445.72 1036.52,230.377 1038.56,201.573 1040.6,183.983 1042.65,193.146 1044.69,201.573 1046.74,216.783 1048.78,230.377 1050.82,327.031 1052.87,464.734 1054.91,279.99 1056.95,209.416 1059,1445.72 1061.04,216.783 1063.09,356.108 1065.13,275.128 1067.17,330.856 1069.22,338.331 1071.26,1445.72 1073.31,323.144 1075.35,1445.72 1077.39,1445.72 1079.44,216.783 1081.48,397.588 1083.52,270.136 1085.57,319.191 1087.61,223.75 1089.66,1445.72 1091.7,1445.72 1093.74,1445.72 1095.79,1445.72 1097.83,1445.72 1099.88,1445.72 1101.92,275.128 1103.96,1445.72 1106.01,230.377 1108.05,193.146 1110.09,173.847 1112.14,193.146 1114.18,209.416 1116.23,391.576 1118.27,236.709 1120.31,439.418 1122.36,306.905 1124.4,216.783 1126.45,1445.72 1128.49,293.888 1130.53,1445.72 1132.58,275.128 1134.62,311.076 1136.66,1445.72 1138.71,201.573 1140.75,1445.72 1142.8,420.553 1144.84,298.316 1146.88,1445.72 1148.93,302.654 1150.97,1445.72 1153.02,1445.72 1155.06,1445.72 1157.1,1445.72 1159.15,279.99 1161.19,289.362 1163.23,366.23 1165.28,183.983 1167.32,130.912 1169.37,183.983 1171.41,193.146 1173.45,209.416 1175.5,265.004 1177.54,352.648 1179.59,1445.72 1181.63,209.416 1183.67,345.589 1185.72,230.377 1187.76,403.486 1189.8,1445.72 1191.85,1445.72 1193.89,209.416 1195.94,1445.72 1197.98,327.031 1200.02,467.172 1202.07,254.265 1204.11,265.004 1206.16,1445.72 1208.2,375.996 1210.24,369.523 1212.29,183.983 1214.33,216.783 1216.37,1445.72 1218.42,1445.72 1220.46,242.782 1222.51,284.731 1224.55,216.783 1226.59,259.718 1228.64,289.362 1230.68,1445.72 1232.73,209.416 1234.77,284.731 1236.81,1445.72 1238.86,242.782 1240.9,302.654 1242.94,236.709 1244.99,417.77 1247.03,265.004 1249.08,447.2 1251.12,284.731 1253.16,1445.72 1255.21,1445.72 1257.25,1445.72 1259.3,1445.72 1261.34,1445.72 1263.38,1445.72 1265.43,1445.72 1267.47,1445.72 1269.51,1445.72 1271.56,1445.72 1273.6,1445.72 1275.65,1445.72 1277.69,1445.72 1279.73,1445.72 1281.78,1445.72 1283.82,1445.72 1285.87,372.778 1287.91,293.888 1289.95,327.031 1292,397.588 1294.04,1445.72 1296.09,379.179 1298.13,275.128 1300.17,201.573 1302.22,1445.72 1304.26,1445.72 1306.3,209.416 1308.35,259.718 1310.39,349.143 1312.44,323.144 1314.48,201.573 1316.52,223.75 1318.57,1445.72 1320.61,341.986 1322.66,265.004 1324.7,1445.72 1326.74,1445.72 1328.79,1445.72 1330.83,193.146 1332.87,1445.72 1334.92,1445.72 1336.96,412.132 1339.01,1445.72 1341.05,230.377 1343.09,259.718 1345.14,334.622 1347.18,242.782 1349.23,1445.72 1351.27,1445.72 1353.31,302.654 1355.36,1445.72 1357.4,306.905 1359.44,275.128 1361.49,284.731 1363.53,298.316 1365.58,236.709 1367.62,223.75 1369.66,216.783 1371.71,209.416 1373.75,201.573 1375.8,201.573 1377.84,201.573 1379.88,193.146 1381.93,193.146 1383.97,193.146 1386.01,193.146 1388.06,183.983 1390.1,183.983 1392.15,183.983 1394.19,183.983 1396.23,183.983 1398.28,183.983 1400.32,173.847 1402.37,173.847 1404.41,173.847 1406.45,173.847 1408.5,173.847 1410.54,173.847 1412.58,173.847 1414.63,173.847 1416.67,173.847 1418.72,173.847 1420.76,162.343 1422.8,162.343 1424.85,162.343 1426.89,162.343 1428.94,162.343 1430.98,162.343 1433.02,162.343 1435.07,162.343 1437.11,162.343 1439.15,162.343 1441.2,162.343 1443.24,162.343 1445.29,162.343 1447.33,148.696 1449.37,148.696 1451.42,148.696 1453.46,148.696 1455.51,148.696 1457.55,148.696 1459.59,148.696 1461.64,148.696 1463.68,148.696 1465.72,148.696 1467.77,148.696 1469.81,130.912 1471.86,130.912 1473.9,87.9763 1475.94,130.912 1477.99,130.912 1480.03,148.696 1482.08,148.696 1484.12,148.696 1486.16,148.696 1488.21,148.696 1490.25,148.696 1492.29,148.696 1494.34,148.696 1496.38,148.696 1498.43,148.696 1500.47,148.696 1502.51,148.696 1504.56,148.696 1506.6,148.696 1508.65,148.696 1510.69,162.343 1512.73,162.343 1514.78,162.343 1516.82,162.343 1518.86,162.343 1520.91,162.343 1522.95,162.343 1525,162.343 1527.04,162.343 1529.08,162.343 1531.13,162.343 1533.17,162.343 1535.22,162.343 1537.26,162.343 1539.3,162.343 1541.35,162.343 1543.39,162.343 1545.43,162.343 1547.48,162.343 1549.52,162.343 1551.57,162.343 1553.61,162.343 1555.65,162.343 1557.7,162.343 1559.74,162.343 1561.79,162.343 1563.83,162.343 1565.87,162.343 1567.92,162.343 1569.96,162.343 1572,162.343 1574.05,162.343 1576.09,162.343 1578.14,162.343 1580.18,173.847 1582.22,173.847 1584.27,173.847 1586.31,173.847 1588.36,173.847 1590.4,173.847 1592.44,173.847 1594.49,173.847 1596.53,173.847 1598.57,173.847 1600.62,173.847 1602.66,173.847 1604.71,173.847 1606.75,173.847 1608.79,173.847 1610.84,173.847 1612.88,173.847 1614.93,173.847 1616.97,173.847 1619.01,173.847 1621.06,173.847 1623.1,173.847 1625.15,173.847 1627.19,173.847 1629.23,173.847 1631.28,173.847 1633.32,173.847 1635.36,173.847 1637.41,173.847 1639.45,173.847 1641.5,173.847 1643.54,173.847 1645.58,173.847 1647.63,173.847 1649.67,173.847 1651.72,173.847 1653.76,173.847 1655.8,173.847 1657.85,173.847 1659.89,173.847 1661.93,173.847 1663.98,173.847 1666.02,173.847 1668.07,173.847 1670.11,173.847 1672.15,173.847 1674.2,173.847 1676.24,173.847 1678.29,173.847 1680.33,173.847 1682.37,173.847 1684.42,173.847 1686.46,173.847 1688.5,173.847 1690.55,173.847 1692.59,173.847 1694.64,173.847 1696.68,173.847 1698.72,173.847 1700.77,173.847 1702.81,173.847 1704.86,173.847 1706.9,183.983 1708.94,183.983 1710.99,183.983 1713.03,183.983 1715.07,183.983 1717.12,183.983 1719.16,183.983 1721.21,183.983 1723.25,183.983 1725.29,183.983 1727.34,183.983 1729.38,183.983 1731.43,183.983 1733.47,183.983 1735.51,183.983 1737.56,183.983 1739.6,183.983 1741.64,183.983 1743.69,183.983 1745.73,183.983 1747.78,183.983 1749.82,183.983 1751.86,183.983 1753.91,183.983 1755.95,183.983 1758,183.983 1760.04,183.983 1762.08,183.983 1764.13,183.983 1766.17,183.983 1768.21,183.983 1770.26,183.983 1772.3,183.983 1774.35,183.983 1776.39,183.983 1778.43,183.983 1780.48,183.983 1782.52,183.983 1784.57,183.983 1786.61,183.983 1788.65,183.983 1790.7,183.983 1792.74,183.983 1794.78,183.983 1796.83,183.983 1798.87,183.983 1800.92,183.983 1802.96,183.983 1805,183.983 1807.05,183.983 1809.09,183.983 1811.14,183.983 1813.18,183.983 1815.22,183.983 1817.27,183.983 1819.31,183.983 1821.35,183.983 1823.4,183.983 1825.44,183.983 1827.49,183.983 1829.53,183.983 1831.57,183.983 1833.62,183.983 1835.66,183.983 1837.71,183.983 1839.75,183.983 1841.79,183.983 1843.84,183.983 1845.88,183.983 1847.92,183.983 1849.97,183.983 1852.01,183.983 1854.06,183.983 1856.1,183.983 1858.14,183.983 1860.19,183.983 1862.23,183.983 1864.28,183.983 1866.32,183.983 1868.36,183.983 1870.41,183.983 1872.45,183.983 1874.49,183.983 1876.54,183.983 1878.58,183.983 1880.63,183.983 1882.67,183.983 1884.71,183.983 1886.76,183.983 1888.8,183.983 1890.85,183.983 1892.89,183.983 1894.93,183.983 1896.98,183.983 1899.02,183.983 1901.06,183.983 1903.11,183.983 1905.15,193.146 1907.2,193.146 1909.24,193.146 1911.28,193.146 1913.33,193.146 1915.37,193.146 1917.42,193.146 1919.46,193.146 1921.5,193.146 1923.55,193.146 1925.59,193.146 1927.63,193.146 1929.68,193.146 1931.72,193.146 1933.77,193.146 1935.81,193.146 1937.85,193.146 1939.9,193.146 1941.94,193.146 1943.99,193.146 1946.03,193.146 1948.07,193.146 1950.12,193.146 1952.16,193.146 1954.2,193.146 1956.25,193.146 1958.29,193.146 1960.34,193.146 1962.38,193.146 1964.42,193.146 1966.47,193.146 1968.51,193.146 1970.56,193.146 1972.6,193.146 1974.64,193.146 1976.69,193.146 1978.73,193.146 1980.78,193.146 1982.82,193.146 1984.86,193.146 1986.91,193.146 1988.95,193.146 1990.99,193.146 1993.04,193.146 1995.08,193.146 1997.13,193.146 1999.17,193.146 2001.21,193.146 2003.26,193.146 2005.3,193.146 2007.35,193.146 2009.39,193.146 2011.43,193.146 2013.48,193.146 2015.52,193.146 2017.56,193.146 2019.61,193.146 2021.65,193.146 2023.7,193.146 2025.74,193.146 2027.78,193.146 2029.83,193.146 2031.87,193.146 2033.92,193.146 2035.96,193.146 2038,193.146 2040.05,193.146 2042.09,193.146 2044.13,193.146 2046.18,193.146 2048.22,193.146 2050.27,193.146 2052.31,193.146 2054.35,193.146 2056.4,193.146 2058.44,193.146 2060.49,193.146 2062.53,193.146 2064.57,193.146 2066.62,193.146 2068.66,193.146 2070.7,193.146 2072.75,193.146 2074.79,193.146 2076.84,193.146 2078.88,193.146 2080.92,193.146 2082.97,193.146 2085.01,193.146 2087.06,193.146 2089.1,193.146 2091.14,193.146 2093.19,193.146 2095.23,193.146 2097.27,193.146 2099.32,193.146 2101.36,193.146 2103.41,193.146 2105.45,193.146 2107.49,193.146 2109.54,193.146 2111.58,193.146 2113.63,193.146 2115.67,193.146 2117.71,193.146 2119.76,193.146 2121.8,193.146 2123.84,193.146 2125.89,193.146 2127.93,193.146 2129.98,193.146 2132.02,193.146 2134.06,193.146 2136.11,193.146 2138.15,193.146 2140.2,193.146 2142.24,193.146 2144.28,193.146 2146.33,193.146 2148.37,193.146 2150.41,193.146 2152.46,193.146 2154.5,193.146 2156.55,193.146 2158.59,193.146 2160.63,193.146 2162.68,193.146 2164.72,193.146 2166.77,193.146 2168.81,193.146 2170.85,193.146 2172.9,193.146 2174.94,193.146 2176.98,193.146 2179.03,193.146 2181.07,193.146 2183.12,193.146 2185.16,193.146 2187.2,193.146 2189.25,193.146 2191.29,193.146 2193.34,193.146 2195.38,193.146 2197.42,193.146 2199.47,193.146 2201.51,193.146 2203.55,193.146 2205.6,193.146 2207.64,193.146 2209.69,193.146 2211.73,201.573 2213.77,201.573 2215.82,201.573 2217.86,201.573 2219.91,201.573 2221.95,201.573 2223.99,201.573 2226.04,201.573 2228.08,201.573 2230.12,201.573 2232.17,201.573 2234.21,201.573 2236.26,201.573 2238.3,201.573 2240.34,201.573 2242.39,201.573 2244.43,201.573 2246.48,201.573 2248.52,201.573 2250.56,201.573 2252.61,201.573 2254.65,201.573 2256.69,201.573 2258.74,201.573 2260.78,201.573 2262.83,201.573 2264.87,201.573 2266.91,201.573 2268.96,201.573 2271,201.573 2273.05,201.573 2275.09,201.573 2277.13,201.573 2279.18,201.573 2281.22,201.573 2283.26,201.573 2285.31,201.573 2287.35,201.573 2289.4,201.573 2291.44,201.573 "/>
<path clip-path="url(#clip910)" d="M2011.46 1438.47 L2280.54 1438.47 L2280.54 1334.79 L2011.46 1334.79  Z" fill="#ffffff" fill-rule="evenodd" fill-opacity="1"/>
<polyline clip-path="url(#clip910)" style="stroke:#000000; stroke-linecap:round; stroke-linejoin:round; stroke-width:4; stroke-opacity:1; fill:none" points="2011.46,1438.47 2280.54,1438.47 2280.54,1334.79 2011.46,1334.79 2011.46,1438.47 "/>
<polyline clip-path="url(#clip910)" style="stroke:#009af9; stroke-linecap:round; stroke-linejoin:round; stroke-width:4; stroke-opacity:1; fill:none" points="2035.53,1386.63 2179.97,1386.63 "/>
<path clip-path="url(#clip910)" d="M2217.88 1406.32 Q2216.07 1410.95 2214.36 1412.36 Q2212.65 1413.78 2209.78 1413.78 L2206.38 1413.78 L2206.38 1410.21 L2208.88 1410.21 Q2210.63 1410.21 2211.61 1409.38 Q2212.58 1408.54 2213.76 1405.44 L2214.52 1403.5 L2204.04 1377.99 L2208.55 1377.99 L2216.65 1398.27 L2224.76 1377.99 L2229.27 1377.99 L2217.88 1406.32 Z" fill="#000000" fill-rule="nonzero" fill-opacity="1" /><path clip-path="url(#clip910)" d="M2236.56 1399.98 L2244.2 1399.98 L2244.2 1373.61 L2235.89 1375.28 L2235.89 1371.02 L2244.15 1369.35 L2248.83 1369.35 L2248.83 1399.98 L2256.47 1399.98 L2256.47 1403.91 L2236.56 1403.91 L2236.56 1399.98 Z" fill="#000000" fill-rule="nonzero" fill-opacity="1" /></svg>
